<svg width="60" height="60" viewBox="0 0 60 60" fill="none" xmlns="http://www.w3.org/2000/svg">
<path d="M38.7263 2C34.3863 2 30.3964 3.79665 27.6664 6.82995C24.9364 3.79665 20.9465 2 16.6065 2C8.5566 2 2 8.2766 2 15.9998C2 35.763 25.4731 50.0661 26.4764 50.6728C26.8264 50.8828 27.2464 50.9995 27.6664 50.9995C27.8764 50.9995 28.063 50.9761 28.273 50.9061C26.4997 47.9662 25.3331 44.5362 25.3331 40.6162V31.2597C25.3331 28.5064 27.0831 26.0564 29.6964 25.1697L41.9229 21.0165C43.2529 20.5498 44.7462 20.5498 46.0762 21.0165L52.3294 23.1398C52.9594 20.8531 53.3328 18.4732 53.3328 15.9998C53.3328 8.2766 46.7762 2 38.7263 2Z" fill="#C5C5C5"/>
<path d="M56.812 29.5937L44.5622 25.4264C44.1982 25.3004 43.8015 25.3004 43.4375 25.4264L31.1877 29.5937C30.476 29.834 30 30.499 30 31.2503V40.6256C30 52.0681 42.7725 57.6307 43.3162 57.8617C43.7549 58.0461 44.2448 58.0461 44.6835 57.8617C45.2272 57.6284 57.9997 52.0681 57.9997 40.6256V31.2503C57.9997 30.499 57.5237 29.834 56.812 29.5937ZM51.6671 38.4416L45.2505 46.6082C44.4338 47.6512 42.9032 47.8028 41.8975 46.9395L37.8142 43.4395C36.8343 42.6019 36.7199 41.1272 37.5623 40.1496C38.3999 39.1719 39.8746 39.0599 40.8499 39.8976L43.0852 41.8132L47.9968 35.5623C48.7925 34.5496 50.2578 34.37 51.2728 35.1703C52.2878 35.9613 52.4651 37.4289 51.6671 38.4416Z" fill="#1D1D1B"/>
</svg>
