<svg width="60" height="60" viewBox="0 0 60 60" fill="none" xmlns="http://www.w3.org/2000/svg">
<path d="M45.5562 14.4444C48.9926 14.4444 51.7784 11.6586 51.7784 8.22221C51.7784 4.78578 48.9926 2 45.5562 2C42.1198 2 39.334 4.78578 39.334 8.22221C39.334 11.6586 42.1198 14.4444 45.5562 14.4444Z" fill="#1D1D1B"/>
<path d="M13.4075 56.963C13.4075 57.5365 12.9439 58 12.3704 58H4.07414C3.50066 58 3.03711 57.5365 3.03711 56.963V34.1482C3.03711 33.5748 3.50066 33.1112 4.07414 33.1112H12.3704C12.9439 33.1112 13.4075 33.5748 13.4075 34.1482V56.963Z" fill="#C5C5C5"/>
<path d="M28.9621 56.9629C28.9621 57.5364 28.4986 57.9999 27.9251 57.9999H19.6288C19.0554 57.9999 18.5918 57.5364 18.5918 56.9629V23.7778C18.5918 23.2043 19.0554 22.7407 19.6288 22.7407H27.9251C28.4986 22.7407 28.9621 23.2043 28.9621 23.7778V56.9629Z" fill="#C5C5C5"/>
<path d="M36.4735 39.3198C37.1631 39.3882 37.7957 39.1767 38.2966 38.7982V57.9999H43.4818V42.4444C43.4818 41.2995 44.4109 40.3703 45.5558 40.3703C46.7007 40.3703 47.6299 41.2995 47.6299 42.4444V57.9999H52.8151V38.7982C53.3139 39.1767 53.9485 39.3882 54.6382 39.3198C55.9874 39.1839 56.9632 37.9488 56.9632 36.5924V24.8148C56.9632 20.8056 53.7131 17.5555 49.704 17.5555H41.4077C37.3985 17.5555 34.1484 20.8056 34.1484 24.8148V36.5924C34.1484 37.9488 35.1233 39.1839 36.4735 39.3198Z" fill="#1D1D1B"/>
</svg>
