<svg width="60" height="60" viewBox="0 0 60 60" fill="none" xmlns="http://www.w3.org/2000/svg">
<path d="M10.9842 38.0054L5.6881 48.5959C5.43347 49.1048 5.46081 49.7093 5.75945 50.193C6.05895 50.6762 6.58617 50.9706 7.15484 50.9706H15.1217L19.9017 57.3438C20.2123 57.7595 20.6998 58.0001 21.2129 58.0001C21.8944 58.0001 22.4314 57.5933 22.681 57.0934L27.6716 47.1117C20.9241 46.4665 14.9751 43.0452 10.9842 38.0054Z" fill="#C5C5C5"/>
<path d="M54.3126 48.5959L49.0165 38.0054C45.0256 43.0452 39.0766 46.4665 32.3291 47.1117L37.3202 57.0934C37.5693 57.5933 38.1063 58.0001 38.7878 58.0001C39.3009 58.0001 39.7888 57.7595 40.0994 57.3438L44.879 50.9706H52.8459C53.4145 50.9706 53.9418 50.6762 54.2413 50.193C54.5399 49.7093 54.5672 49.1048 54.3126 48.5959Z" fill="#C5C5C5"/>
<path d="M32.7463 18.1486L30.0004 13.7621L27.2554 18.1486C27.0302 18.5084 26.6743 18.7668 26.2629 18.8698L21.2432 20.1255L24.5663 24.092C24.8389 24.4172 24.9747 24.8354 24.9452 25.2588L24.5876 30.4208L29.3869 28.4863C29.615 28.3944 30.0816 28.2718 30.6135 28.4863L35.4132 30.4208L35.056 25.2588C35.027 24.8354 35.1628 24.4172 35.4354 24.092L38.7585 20.1255L33.7388 18.8698C33.3274 18.7668 32.9715 18.5084 32.7463 18.1486Z" fill="#1D1D1B"/>
<path d="M50.9712 22.9709C50.9712 11.4075 41.5636 2 30.0002 2C18.4368 2 9.0293 11.4075 9.0293 22.9709C9.0293 34.5339 18.4368 43.9419 30.0002 43.9419C41.5636 43.9419 50.9712 34.5343 50.9712 22.9709ZM42.9569 20.2233L38.3751 25.6921L38.8673 32.8091C38.9062 33.3731 38.6524 33.9174 38.1952 34.2498C37.7377 34.5818 37.1416 34.6553 36.6174 34.4442L30.0002 31.7769L23.383 34.4442C23.2057 34.5155 22.4995 34.7539 21.8052 34.2498C21.3481 33.9174 21.0943 33.3731 21.1332 32.8091L21.6262 25.6921L17.0444 20.2237C16.6813 19.7901 16.5668 19.2005 16.7415 18.663C16.9163 18.1255 17.3555 17.7154 17.904 17.5782L24.8246 15.847L28.6095 9.79937C28.9095 9.32043 29.435 9.02948 30.0002 9.02948C30.5655 9.02948 31.091 9.32043 31.3909 9.79937L35.1767 15.847L42.0973 17.5782C42.6459 17.7154 43.0851 18.1255 43.2598 18.663C43.4346 19.2005 43.32 19.7901 42.9569 20.2233Z" fill="#1D1D1B"/>
</svg>
