<svg width="60" height="60" viewBox="0 0 60 60" fill="none" xmlns="http://www.w3.org/2000/svg">
<path d="M58 46.0526V52.922C57.9925 54.2537 57.4601 55.5286 56.5184 56.4703C55.5768 57.412 54.3018 57.9443 52.9701 57.9519H35.7248C34.3931 57.9443 33.1181 57.412 32.1764 56.4703C31.2348 55.5286 30.7024 54.2537 30.6949 52.922V46.0526L42.6229 50.2202C43.1761 50.4177 43.7601 50.515 44.3474 50.5076C44.944 50.5131 45.5371 50.4158 46.1007 50.2202L58 46.0526ZM52.9701 36.7113C54.2461 36.7161 55.4727 37.2057 56.4012 38.0809C57.3298 38.9561 57.8911 40.1516 57.9713 41.4251L44.6636 46.0813C44.4568 46.1389 44.2381 46.1389 44.0313 46.0813L30.7236 41.4251C30.8038 40.1516 31.3651 38.9561 32.2936 38.0809C33.2222 37.2057 34.4487 36.7161 35.7248 36.7113H37.2769V35.2168C37.2844 34.0021 37.7723 32.8397 38.6339 31.9835C39.4955 31.1273 40.6609 30.6467 41.8756 30.6467H46.8193C48.034 30.6467 49.1994 31.1273 50.061 31.9835C50.9226 32.8397 51.4104 34.0021 51.418 35.2168V36.7113H52.9701ZM47.2217 35.2168C47.2145 35.1456 47.1811 35.0797 47.128 35.0318C47.0748 34.984 47.0057 34.9577 46.9342 34.9581H41.8756C41.8041 34.9577 41.735 34.984 41.6819 35.0318C41.6287 35.0797 41.5953 35.1456 41.5882 35.2168V36.7113H47.2217V35.2168ZM4.82687 24.1797C4.83442 25.5114 5.36677 26.7864 6.30843 27.7281C7.25009 28.6697 8.52508 29.2021 9.85676 29.2096H21.3537C22.6853 29.2021 23.9603 28.6697 24.902 27.7281C25.8436 26.7864 26.376 25.5114 26.3835 24.1797V14.6948C26.8126 14.8645 27.2861 14.886 27.7287 14.7558C28.1714 14.6256 28.5578 14.3512 28.8266 13.9762C29.1262 13.5297 29.2481 12.9873 29.1683 12.4555C29.0885 11.9238 28.8129 11.441 28.3955 11.102L16.8986 2.47935C16.5255 2.1995 16.0716 2.04822 15.6052 2.04822C15.1388 2.04822 14.6849 2.1995 14.3118 2.47935L2.81492 11.102C2.41887 11.4166 2.14605 11.8604 2.04418 12.3558C1.94231 12.8512 2.01788 13.3667 2.25767 13.812C2.49746 14.2573 2.88619 14.6041 3.35586 14.7918C3.82554 14.9795 4.34624 14.996 4.82687 14.8385V24.1797Z" fill="#1D1D1B"/>
<path d="M27.1024 50.7663C22.3381 50.7663 17.7689 48.8736 14.4 45.5048C11.0311 42.1359 9.13848 37.5667 9.13848 32.8024C9.13848 32.2306 8.91137 31.6823 8.5071 31.2781C8.10284 30.8738 7.55453 30.6467 6.98282 30.6467C6.4111 30.6467 5.86279 30.8738 5.45853 31.2781C5.05426 31.6823 4.82715 32.2306 4.82715 32.8024C4.83475 38.7078 7.18404 44.3692 11.3598 48.5449C15.5356 52.7207 21.197 55.07 27.1024 55.0776C27.6741 55.0776 28.2224 54.8505 28.6267 54.4462C29.0309 54.0419 29.258 53.4936 29.258 52.9219C29.258 52.3502 29.0309 51.8019 28.6267 51.3976C28.2224 50.9934 27.6741 50.7663 27.1024 50.7663ZM32.8508 9.09002C37.6151 9.09002 42.1843 10.9826 45.5532 14.3515C48.9221 17.7204 50.8147 22.2896 50.8147 27.0539C50.8147 27.6256 51.0418 28.1739 51.4461 28.5782C51.8504 28.9825 52.3987 29.2096 52.9704 29.2096C53.5421 29.2096 54.0904 28.9825 54.4947 28.5782C54.8989 28.1739 55.126 27.6256 55.126 27.0539C55.1184 21.1485 52.7692 15.4871 48.5934 11.3113C44.4176 7.13558 38.7562 4.78629 32.8508 4.77869C32.2791 4.77869 31.7308 5.0058 31.3265 5.41007C30.9223 5.81433 30.6952 6.36264 30.6952 6.93435C30.6952 7.50607 30.9223 8.05437 31.3265 8.45864C31.7308 8.86291 32.2791 9.09002 32.8508 9.09002Z" fill="#C5C5C5"/>
</svg>
