<svg width="22" height="24" viewBox="0 0 22 24" fill="none" xmlns="http://www.w3.org/2000/svg">
<path d="M18.6155 19.6154C18.6155 19.9826 18.4696 20.3348 18.21 20.5944C17.9504 20.8541 17.5981 21 17.2309 21H4.76938C4.40215 21 4.04998 20.8541 3.79031 20.5944C3.53065 20.3348 3.38477 19.9826 3.38477 19.6154V4.38462C3.38477 4.01739 3.53065 3.66521 3.79031 3.40554C4.04998 3.14588 4.40215 3 4.76938 3H13.7694L18.6155 7.84615V19.6154Z" stroke="#009FE3" stroke-width="1.5" stroke-linecap="round" stroke-linejoin="round"/>
<path d="M8.64549 7.17674C6.85412 7.70749 14.3232 16.708 15.1197 14.6484C15.9163 12.5888 5.30903 15.2438 7.05599 16.708C8.80296 18.1721 10.4369 6.64598 8.64549 7.17674Z" stroke="#009FE3" stroke-width="1.5" stroke-linecap="round" stroke-linejoin="round"/>
</svg>
