<svg width="22" height="22" viewBox="0 0 22 22" fill="none" xmlns="http://www.w3.org/2000/svg">
<path d="M18.6155 18.6154C18.6155 18.9826 18.4696 19.3348 18.21 19.5944C17.9504 19.8541 17.5981 20 17.2309 20H4.76938C4.40215 20 4.04998 19.8541 3.79031 19.5944C3.53065 19.3348 3.38477 18.9826 3.38477 18.6154V3.38462C3.38477 3.01739 3.53065 2.66521 3.79031 2.40554C4.04998 2.14588 4.40215 2 4.76938 2H13.7694L18.6155 6.84615V18.6154Z" stroke="white" stroke-width="1.7" stroke-linecap="round" stroke-linejoin="round"/>
<path d="M8.64549 6.17672C6.85412 6.70747 14.3232 15.708 15.1197 13.6484C15.9163 11.5888 5.30903 14.2438 7.05599 15.708C8.80296 17.1721 10.4369 5.64597 8.64549 6.17672Z" stroke="white" stroke-width="1.7" stroke-linecap="round" stroke-linejoin="round"/>
</svg>
