<svg width="25" height="22" viewBox="0 0 25 22" fill="none" xmlns="http://www.w3.org/2000/svg">
<path d="M23.4821 6.87484C22.8034 6.19631 21.9997 5.85701 21.0712 5.85701H16.0624C16.2589 5.32136 16.3571 4.74992 16.3571 4.14273C16.3571 3.05356 15.9932 2.2099 15.2655 1.61153C14.5376 1.0134 13.6159 0.714355 12.4999 0.714355C12.1606 0.714355 11.8502 0.792459 11.569 0.948806C11.2877 1.10492 11.0421 1.32605 10.8323 1.61153C10.6226 1.89725 10.4418 2.17852 10.2901 2.45538C10.1381 2.73218 9.97292 3.05356 9.79444 3.41959C9.6159 3.78585 9.46865 4.06252 9.3526 4.25011C9.04014 4.74124 8.59361 5.31691 8.0134 5.97771C7.99548 6.0045 7.93295 6.08044 7.82581 6.20541C7.71867 6.33047 7.63381 6.42644 7.57138 6.49338C7.50894 6.56032 7.41751 6.65634 7.29687 6.78135C7.17612 6.90641 7.06898 7.00675 6.97535 7.0827C6.88158 7.15864 6.7812 7.2389 6.67401 7.32381C6.56687 7.40866 6.46193 7.4711 6.35925 7.51139C6.25666 7.5515 6.16068 7.57158 6.07142 7.57158H2.21438C1.74107 7.57158 1.337 7.73928 1.00221 8.07397C0.667512 8.40853 0.5 8.8126 0.5 9.28581V17.8572C0.5 18.3304 0.667324 18.7345 1.00221 19.0693C1.33718 19.4041 1.74102 19.5716 2.21438 19.5716H6.07142C6.59811 19.5716 7.59356 19.8352 9.05792 20.362C10.7453 20.9781 12.1828 21.2858 13.3703 21.2858C14.6292 21.2858 15.6426 20.9264 16.4105 20.2077C17.1783 19.4892 17.5579 18.5093 17.5488 17.2679C18.0848 16.5804 18.3526 15.7857 18.3526 14.8841C18.3526 14.6877 18.3391 14.4958 18.3125 14.3083C18.6072 13.7994 18.7724 13.268 18.8082 12.7145H21.0716C22.0091 12.7145 22.815 12.3753 23.4892 11.6968C24.1631 11.0183 24.5001 10.2103 24.5001 9.27296C24.4998 8.35313 24.1605 7.55394 23.4821 6.87484ZM3.67409 17.6029C3.50437 17.7726 3.30356 17.8574 3.07145 17.8574C2.83916 17.8574 2.63825 17.7726 2.46867 17.6029C2.29896 17.4333 2.21424 17.2324 2.21424 17.0003C2.21424 16.7681 2.299 16.5672 2.46867 16.3976C2.63844 16.2279 2.83916 16.143 3.07145 16.143C3.30356 16.143 3.50437 16.2279 3.67409 16.3976C3.84371 16.5671 3.92852 16.7681 3.92852 17.0003C3.92852 17.2324 3.84367 17.4333 3.67409 17.6029ZM22.2765 10.4919C21.9375 10.8312 21.5352 11.0008 21.0709 11.0008H16.6381C16.7719 11.1525 16.8835 11.3647 16.9728 11.637C17.0622 11.9092 17.1068 12.1571 17.1068 12.3802C17.1068 12.9964 16.8702 13.5274 16.397 13.9737C16.5578 14.2594 16.6381 14.5677 16.6381 14.8978C16.6381 15.2282 16.5599 15.5563 16.4037 15.8822C16.2474 16.2079 16.0353 16.4423 15.7674 16.5852C15.812 16.8526 15.8345 17.1028 15.8345 17.3351C15.8345 18.8258 14.9908 19.5713 13.3033 19.5713C12.58 19.5713 11.7786 19.4284 10.8992 19.143C10.0198 18.8574 9.15596 18.5715 8.3077 18.2858C7.45945 18.0003 6.71402 17.8574 6.07109 17.8574H5.64258V9.28619H6.07109C6.70497 9.28619 7.32989 9.03166 7.94599 8.52256C8.21398 8.29918 8.66487 7.82592 9.2987 7.10282C9.94164 6.37972 10.4417 5.73257 10.7987 5.16098C10.9148 4.97339 11.08 4.68322 11.2943 4.2904C11.8836 3.04929 12.2854 2.42887 12.4998 2.42887C13.1337 2.42887 13.6493 2.565 14.0466 2.83721C14.444 3.10961 14.6425 3.54474 14.6425 4.14292C14.6425 4.52692 14.5756 4.90416 14.4417 5.27464C14.3077 5.64513 14.1605 5.94881 13.9998 6.18533C13.8391 6.42184 13.6917 6.66746 13.5578 6.92194C13.4239 7.17637 13.357 7.39295 13.357 7.57144H21.0713C21.5175 7.57144 21.915 7.74336 22.2633 8.08706C22.6114 8.43099 22.7854 8.83024 22.7854 9.28572C22.7854 9.7504 22.6159 10.1521 22.2765 10.4919Z" fill="#1D1D1B"/>
</svg>
