<svg width="32" height="32" viewBox="0 0 32 32" fill="none" xmlns="http://www.w3.org/2000/svg">
<rect width="32" height="32" rx="16" fill="#1D1D1B"/>
<path d="M21.5385 13.5385C21.5385 17.2308 16 21.5385 16 21.5385C16 21.5385 10.4615 17.2308 10.4615 13.5385C10.4615 10.5218 12.9834 8 16 8C19.0166 8 21.5385 10.5218 21.5385 13.5385Z" stroke="white" stroke-width="1.3" stroke-linecap="round" stroke-linejoin="round"/>
<path d="M16 15.3847C17.0196 15.3847 17.8461 14.5581 17.8461 13.5385C17.8461 12.5189 17.0196 11.6924 16 11.6924C14.9804 11.6924 14.1538 12.5189 14.1538 13.5385C14.1538 14.5581 14.9804 15.3847 16 15.3847Z" stroke="white" stroke-width="1.3" stroke-linecap="round" stroke-linejoin="round"/>
<path d="M21.0182 19.6924H22.1538L24 24.0001H8L9.84615 19.6924H10.9818" stroke="white" stroke-width="1.3" stroke-linecap="round" stroke-linejoin="round"/>
</svg>
