<svg width="32" height="32" viewBox="0 0 32 32" fill="none" xmlns="http://www.w3.org/2000/svg">
<rect width="32" height="32" rx="16" fill="#1D1D1B"/>
<path d="M18.0025 22.8364C18.7048 23.2894 19.5418 23.4869 20.3726 23.3956C21.2034 23.3041 21.9774 22.9295 22.5644 22.3345L23.0776 21.8327C23.3026 21.6025 23.4286 21.2935 23.4286 20.9717C23.4286 20.6499 23.3026 20.3407 23.0776 20.1107L20.8993 17.9551C20.6711 17.7308 20.3639 17.6052 20.0439 17.6052C19.724 17.6052 19.4168 17.7308 19.1886 17.9551C18.9585 18.1801 18.6494 18.3061 18.3275 18.3061C18.0057 18.3061 17.6966 18.1801 17.4665 17.9551L14.0451 14.5337C13.9309 14.4212 13.8403 14.2872 13.7784 14.1394C13.7166 13.9915 13.6847 13.8329 13.6847 13.6727C13.6847 13.5124 13.7166 13.3538 13.7784 13.2059C13.8403 13.0581 13.9309 12.9241 14.0451 12.8116C14.2693 12.5834 14.395 12.2762 14.395 11.9562C14.395 11.6363 14.2693 11.3291 14.0451 11.1009L11.8782 8.93398C11.648 8.70899 11.339 8.58301 11.0172 8.58301C10.6952 8.58301 10.3862 8.70899 10.156 8.93398L9.65419 9.4472C9.05933 10.0342 8.6847 10.8082 8.59327 11.639C8.50185 12.4698 8.69933 13.3068 9.15247 14.0091C11.5133 17.4884 14.5171 20.4845 18.0025 22.8364Z" stroke="white" stroke-width="1.3" stroke-linecap="round" stroke-linejoin="round"/>
</svg>
