<svg width="60" height="60" viewBox="0 0 60 60" fill="none" xmlns="http://www.w3.org/2000/svg">
<path d="M12.5352 35.4135C12.656 36.7199 12.5636 40.2712 9.16152 45.2096C8.90417 45.5823 8.95086 46.0849 9.27045 46.4044C10.6575 47.7914 11.5162 48.6666 12.1186 49.2791C12.9106 50.0867 13.2722 50.4546 13.8014 50.9345C14.1547 51.2521 14.6894 51.2576 15.0465 50.9463C20.9764 45.7864 27.5627 35.1242 26.6096 22.0614C26.0511 14.3912 20.4563 8.82383 13.307 8.82383C5.96999 8.82383 0.000736237 14.7921 0.000736237 22.1292C0.000736237 29.2071 5.55607 35.0116 12.5352 35.4135ZM13.307 10.6988C19.4465 10.6988 24.254 15.5346 24.74 22.1969C25.8122 36.8884 17.079 46.4318 14.4404 48.9587C14.1831 48.7051 13.8892 48.4067 13.4562 47.9654C12.9344 47.4344 12.2202 46.7075 11.1399 45.6234C15.2699 39.2605 14.4907 34.7269 14.1493 34.0768C13.9872 33.7683 13.6549 33.5604 13.307 33.5604C7.00358 33.5604 1.87574 28.4326 1.87574 22.1292C1.87574 15.8267 7.00358 10.6988 13.307 10.6988Z" fill="#3C3C39"/>
<path d="M45.831 35.4132C45.9528 36.716 45.8631 40.2646 42.4574 45.2094C42.2009 45.582 42.2468 46.0846 42.5663 46.4041C43.9506 47.7884 44.8084 48.6627 45.4099 49.2752C46.2045 50.0845 46.5672 50.4535 47.0963 50.9342C47.4497 51.2518 47.9844 51.2564 48.3414 50.947C54.2713 45.787 60.8585 35.1266 59.9073 22.0612C59.347 14.3919 53.7513 8.82357 46.6019 8.82357C39.2649 8.82357 33.2956 14.7919 33.2956 22.1289C33.2956 29.2077 38.8511 35.0131 45.831 35.4132ZM46.6019 10.6986C52.7405 10.6986 57.5507 15.5344 58.0378 22.1976C59.1071 36.8927 50.3739 46.4325 47.7354 48.9584C47.4772 48.7048 47.1824 48.4045 46.7484 47.9623C46.2275 47.4313 45.5143 46.7053 44.4358 45.6232C48.5657 39.2593 47.7866 34.7266 47.4451 34.0775C47.283 33.7689 46.9499 33.5602 46.6019 33.5602C40.2985 33.5602 35.1706 28.4323 35.1706 22.1289C35.1706 15.8264 40.2985 10.6986 46.6019 10.6986Z" fill="#3C3C39"/>
</svg>
