<svg width="943" height="500" viewBox="0 0 943 500" fill="none" xmlns="http://www.w3.org/2000/svg">
<path opacity="0.55" d="M71.0586 70.3174H119.869V0H121.449V70.3174H170.261V0H171.841V70.3174H220.65V0H222.23V70.3174H270.278V0H271.858V70.3174H320.669V0H322.249V70.3174H375.916V0H377.496V70.3174H427.318V0H428.898V70.3174H478.72V0H480.3V70.3174H530.122V0H531.702V70.3174H581.523V0H583.104V70.3174H632.926V0H634.506V70.3174H684.327V0H685.907V70.3174H735.729V0H737.31V70.3174H787.131V0H788.711V70.3174H838.533V0H840.113V70.3174H889.935V0H891.515V70.3174H942.921V71.8975H891.515V123.653H942.921V125.233H891.515V176.925H942.921V178.505H891.515V230.195H942.921V231.775H891.515V283.467H942.921V285.047H891.515V336.737H942.921V338.317H891.515V390.009H942.921V391.589H891.515V443.279H942.921V444.859H891.515V496.551H942.921V498.131H322.249V500H320.669V498.131H271.858V500H270.278V498.131H222.23V500H220.65V498.131H171.841V500H170.261V498.131H121.449V500H119.869V498.131H71.0586V500H69.4785V498.131H0V496.551H69.4785V444.859H0V443.279H69.4785V391.589H0V390.009H69.4785V338.317H0V336.737H69.4785V285.047H0V283.467H69.4785V231.775H0V230.195H69.4785V178.505H0V176.925H69.4785V125.233H0V123.653H69.4785V71.8975H0V70.3174H69.4785V0H71.0586V70.3174ZM71.0586 496.551H119.869V444.859H71.0586V496.551ZM121.449 496.551H170.261V444.859H121.449V496.551ZM171.841 496.551H220.65V444.859H171.841V496.551ZM222.23 496.551H270.278V444.859H222.23V496.551ZM271.858 496.551H320.669V444.859H271.858V496.551ZM322.249 496.551H375.916V444.859H322.249V496.551ZM377.496 496.551H427.318V444.859H377.496V496.551ZM428.898 496.551H478.72V444.859H428.898V496.551ZM480.3 496.551H530.122V444.859H480.3V496.551ZM531.702 496.551H581.523V444.859H531.702V496.551ZM583.104 496.551H632.926V444.859H583.104V496.551ZM634.506 496.551H684.327V444.859H634.506V496.551ZM685.907 496.551H735.729V444.859H685.907V496.551ZM737.31 496.551H787.131V444.859H737.31V496.551ZM788.711 496.551H838.533V444.859H788.711V496.551ZM840.113 496.551H889.935V444.859H840.113V496.551ZM71.0586 443.279H119.869V391.589H71.0586V443.279ZM121.449 443.279H170.261V391.589H121.449V443.279ZM171.841 443.279H220.65V391.589H171.841V443.279ZM222.23 443.279H270.278V391.589H222.23V443.279ZM271.858 443.279H320.669V391.589H271.858V443.279ZM322.249 443.279H375.916V391.589H322.249V443.279ZM377.496 443.279H427.318V391.589H377.496V443.279ZM428.898 443.279H478.72V391.589H428.898V443.279ZM480.3 443.279H530.122V391.589H480.3V443.279ZM531.702 443.279H581.523V391.589H531.702V443.279ZM583.104 443.279H632.926V391.589H583.104V443.279ZM634.506 443.279H684.327V391.589H634.506V443.279ZM685.907 443.279H735.729V391.589H685.907V443.279ZM737.31 443.279H787.131V391.589H737.31V443.279ZM788.711 443.279H838.533V391.589H788.711V443.279ZM840.113 443.279H889.935V391.589H840.113V443.279ZM71.0586 390.009H119.869V338.317H71.0586V390.009ZM121.449 390.009H170.261V338.317H121.449V390.009ZM171.841 390.009H220.65V338.317H171.841V390.009ZM222.23 390.009H270.278V338.317H222.23V390.009ZM271.858 390.009H320.669V338.317H271.858V390.009ZM322.249 390.009H375.916V338.317H322.249V390.009ZM377.496 390.009H427.318V338.317H377.496V390.009ZM428.898 390.009H478.72V338.317H428.898V390.009ZM480.3 390.009H530.122V338.317H480.3V390.009ZM531.702 390.009H581.523V338.317H531.702V390.009ZM583.104 390.009H632.926V338.317H583.104V390.009ZM634.506 390.009H684.327V338.317H634.506V390.009ZM685.907 390.009H735.729V338.317H685.907V390.009ZM737.31 390.009H787.131V338.317H737.31V390.009ZM788.711 390.009H838.533V338.317H788.711V390.009ZM840.113 390.009H889.935V338.317H840.113V390.009ZM71.0586 336.737H119.869V285.047H71.0586V336.737ZM121.449 336.737H170.261V285.047H121.449V336.737ZM171.841 336.737H220.65V285.047H171.841V336.737ZM222.23 336.737H270.278V285.047H222.23V336.737ZM271.858 336.737H320.669V285.047H271.858V336.737ZM322.249 336.737H375.916V285.047H322.249V336.737ZM377.496 336.737H427.318V285.047H377.496V336.737ZM428.898 336.737H478.72V285.047H428.898V336.737ZM480.3 336.737H530.122V285.047H480.3V336.737ZM531.702 336.737H581.523V285.047H531.702V336.737ZM583.104 336.737H632.926V285.047H583.104V336.737ZM634.506 336.737H684.327V285.047H634.506V336.737ZM685.907 336.737H735.729V285.047H685.907V336.737ZM737.31 336.737H787.131V285.047H737.31V336.737ZM788.711 336.737H838.533V285.047H788.711V336.737ZM840.113 336.737H889.935V285.047H840.113V336.737ZM71.0586 283.467H119.869V231.775H71.0586V283.467ZM121.449 283.467H170.261V231.775H121.449V283.467ZM171.841 283.467H220.65V231.775H171.841V283.467ZM222.23 283.467H270.278V231.775H222.23V283.467ZM271.858 283.467H320.669V231.775H271.858V283.467ZM322.249 283.467H375.916V231.775H322.249V283.467ZM377.496 283.467H427.318V231.775H377.496V283.467ZM428.898 283.467H478.72V231.775H428.898V283.467ZM480.3 283.467H530.122V231.775H480.3V283.467ZM531.702 283.467H581.523V231.775H531.702V283.467ZM583.104 283.467H632.926V231.775H583.104V283.467ZM634.506 283.467H684.327V231.775H634.506V283.467ZM685.907 283.467H735.729V231.775H685.907V283.467ZM737.31 283.467H787.131V231.775H737.31V283.467ZM788.711 283.467H838.533V231.775H788.711V283.467ZM840.113 283.467H889.935V231.775H840.113V283.467ZM71.0586 230.195H119.869V178.505H71.0586V230.195ZM121.449 230.195H170.261V178.505H121.449V230.195ZM171.841 230.195H220.65V178.505H171.841V230.195ZM222.23 230.195H270.278V178.505H222.23V230.195ZM271.858 230.195H320.669V178.505H271.858V230.195ZM322.249 230.195H375.916V178.505H322.249V230.195ZM377.496 230.195H427.318V178.505H377.496V230.195ZM428.898 230.195H478.72V178.505H428.898V230.195ZM480.3 230.195H530.122V178.505H480.3V230.195ZM531.702 230.195H581.523V178.505H531.702V230.195ZM583.104 230.195H632.926V178.505H583.104V230.195ZM634.506 230.195H684.327V178.505H634.506V230.195ZM685.907 230.195H735.729V178.505H685.907V230.195ZM737.31 230.195H787.131V178.505H737.31V230.195ZM788.711 230.195H838.533V178.505H788.711V230.195ZM840.113 230.195H889.935V178.505H840.113V230.195ZM71.0586 176.925H119.869V125.233H71.0586V176.925ZM121.449 176.925H170.261V125.233H121.449V176.925ZM171.841 176.925H220.65V125.233H171.841V176.925ZM222.23 176.925H270.278V125.233H222.23V176.925ZM271.858 176.925H320.669V125.233H271.858V176.925ZM322.249 176.925H375.916V125.233H322.249V176.925ZM377.496 176.925H427.318V125.233H377.496V176.925ZM428.898 176.925H478.72V125.233H428.898V176.925ZM480.3 176.925H530.122V125.233H480.3V176.925ZM531.702 176.925H581.523V125.233H531.702V176.925ZM583.104 176.925H632.926V125.233H583.104V176.925ZM634.506 176.925H684.327V125.233H634.506V176.925ZM685.907 176.925H735.729V125.233H685.907V176.925ZM737.31 176.925H787.131V125.233H737.31V176.925ZM788.711 176.925H838.533V125.233H788.711V176.925ZM840.113 176.925H889.935V125.233H840.113V176.925ZM71.0586 123.653H119.869V71.8975H71.0586V123.653ZM121.449 123.653H170.261V71.8975H121.449V123.653ZM171.841 123.653H220.65V71.8975H171.841V123.653ZM222.23 123.653H270.278V71.8975H222.23V123.653ZM271.858 123.653H320.669V71.8975H271.858V123.653ZM322.249 123.653H375.916V71.8975H322.249V123.653ZM377.496 123.653H427.318V71.8975H377.496V123.653ZM428.898 123.653H478.72V71.8975H428.898V123.653ZM480.3 123.653H530.122V71.8975H480.3V123.653ZM531.702 123.653H581.523V71.8975H531.702V123.653ZM583.104 123.653H632.926V71.8975H583.104V123.653ZM634.506 123.653H684.327V71.8975H634.506V123.653ZM685.907 123.653H735.729V71.8975H685.907V123.653ZM737.31 123.653H787.131V71.8975H737.31V123.653ZM788.711 123.653H838.533V71.8975H788.711V123.653ZM840.113 123.653H889.935V71.8975H840.113V123.653Z" fill="url(#paint0_radial_588_4938)"/>
<defs>
<radialGradient id="paint0_radial_588_4938" cx="0" cy="0" r="1" gradientTransform="matrix(-634.57 -401.82 362.53 -561.016 950.98 500)" gradientUnits="userSpaceOnUse">
<stop stop-color="#EDECF3" stop-opacity="0.49"/>
<stop offset="0.744491" stop-color="#E6E5F5" stop-opacity="0.01"/>
</radialGradient>
</defs>
</svg>
