<svg width="192" height="52" viewBox="0 0 192 52" fill="none" xmlns="http://www.w3.org/2000/svg">
<path d="M15.8815 38.6089L9.02781 48.54C8.91757 48.6813 8.767 48.7973 8.58972 48.8776C8.41243 48.9579 8.21403 49 8.01245 49C7.81086 49 7.61246 48.9579 7.43517 48.8776C7.25789 48.7973 7.10732 48.6813 6.99708 48.54L0.143362 38.6089C0.0179333 38.4154 -0.0269801 38.1924 0.015702 37.9752C0.0583841 37.7579 0.186234 37.5587 0.379096 37.409C0.571958 37.2593 0.818861 37.1676 1.08088 37.1483C1.3429 37.129 1.60513 37.1833 1.82624 37.3026L6.83725 40.1828L6.83725 3.98367C6.83725 3.72278 6.96107 3.47258 7.18146 3.28811C7.40185 3.10363 7.70077 3 8.01245 3C8.32413 3 8.62304 3.10363 8.84343 3.28811C9.06382 3.47258 9.18764 3.72278 9.18764 3.98367L9.18764 40.1828L14.1987 37.3026C14.4198 37.1833 14.682 37.129 14.944 37.1483C15.206 37.1676 15.4529 37.2593 15.6458 37.409C15.8387 37.5587 15.9665 37.7579 16.0092 37.9752C16.0519 38.1924 16.007 38.4154 15.8815 38.6089Z" fill="white"/>
<path d="M38.2593 15.2969C38.2957 15.9479 38.4494 16.4766 38.7202 16.8828C39.2358 17.6432 40.1447 18.0234 41.4468 18.0234C42.0301 18.0234 42.5614 17.9401 43.0405 17.7734C43.9676 17.4505 44.4312 16.8724 44.4312 16.0391C44.4312 15.4141 44.2358 14.9688 43.8452 14.7031C43.4494 14.4427 42.8296 14.2161 41.9858 14.0234L40.4312 13.6719C39.4155 13.4427 38.6968 13.1901 38.2749 12.9141C37.5457 12.4349 37.1812 11.7188 37.1812 10.7656C37.1812 9.73438 37.5379 8.88802 38.2515 8.22656C38.965 7.5651 39.9754 7.23438 41.2827 7.23438C42.4858 7.23438 43.5067 7.52604 44.3452 8.10938C45.189 8.6875 45.6108 9.61458 45.6108 10.8906H44.1499C44.0718 10.276 43.9051 9.80469 43.6499 9.47656C43.1759 8.8776 42.3713 8.57812 41.2358 8.57812C40.3192 8.57812 39.6603 8.77083 39.2593 9.15625C38.8582 9.54167 38.6577 9.98958 38.6577 10.5C38.6577 11.0625 38.8921 11.474 39.3608 11.7344C39.6681 11.901 40.3634 12.1094 41.4468 12.3594L43.0562 12.7266C43.8322 12.9036 44.4312 13.1458 44.853 13.4531C45.5822 13.9896 45.9468 14.7682 45.9468 15.7891C45.9468 17.0599 45.4832 17.9688 44.5562 18.5156C43.6343 19.0625 42.5614 19.3359 41.3374 19.3359C39.9103 19.3359 38.7931 18.9714 37.9858 18.2422C37.1785 17.5182 36.7827 16.5365 36.7983 15.2969H38.2593ZM51.1146 10.3906C52.0573 10.3906 52.8229 10.6198 53.4115 11.0781C54.0052 11.5365 54.362 12.3255 54.4818 13.4453H53.1146C53.0313 12.9297 52.8412 12.5026 52.5443 12.1641C52.2474 11.8203 51.7708 11.6484 51.1146 11.6484C50.2188 11.6484 49.5781 12.0859 49.1927 12.9609C48.9427 13.5286 48.8177 14.2292 48.8177 15.0625C48.8177 15.901 48.9948 16.6068 49.349 17.1797C49.7031 17.7526 50.2604 18.0391 51.0208 18.0391C51.6042 18.0391 52.0651 17.862 52.4037 17.5078C52.7474 17.1484 52.9844 16.6589 53.1146 16.0391H54.4818C54.3255 17.1484 53.9349 17.9609 53.3099 18.4766C52.6849 18.987 51.8854 19.2422 50.9115 19.2422C49.8177 19.2422 48.9453 18.8438 48.2943 18.0469C47.6432 17.2448 47.3177 16.2448 47.3177 15.0469C47.3177 13.5781 47.6745 12.4349 48.388 11.6172C49.1016 10.7995 50.0104 10.3906 51.1146 10.3906ZM56.0871 10.6328H57.423V12.0781C57.5324 11.7969 57.8006 11.4557 58.2277 11.0547C58.6548 10.6484 59.147 10.4453 59.7043 10.4453C59.7303 10.4453 59.7746 10.4479 59.8371 10.4531C59.8996 10.4583 60.0064 10.4688 60.1574 10.4844V11.9688C60.0741 11.9531 59.9959 11.9427 59.923 11.9375C59.8553 11.9323 59.7798 11.9297 59.6965 11.9297C58.9881 11.9297 58.4439 12.1589 58.0637 12.6172C57.6834 13.0703 57.4933 13.5938 57.4933 14.1875V19H56.0871V10.6328ZM64.8565 18.0938C65.7888 18.0938 66.4268 17.7422 66.7705 17.0391C67.1195 16.3307 67.294 15.5443 67.294 14.6797C67.294 13.8984 67.169 13.263 66.919 12.7734C66.5231 12.0026 65.8408 11.6172 64.8721 11.6172C64.0127 11.6172 63.3877 11.9453 62.9971 12.6016C62.6065 13.2578 62.4112 14.0495 62.4112 14.9766C62.4112 15.8672 62.6065 16.6094 62.9971 17.2031C63.3877 17.7969 64.0075 18.0938 64.8565 18.0938ZM64.9112 10.3906C65.9893 10.3906 66.9007 10.75 67.6455 11.4688C68.3903 12.1875 68.7627 13.2448 68.7627 14.6406C68.7627 15.9896 68.4346 17.1042 67.7783 17.9844C67.1221 18.8646 66.1039 19.3047 64.7237 19.3047C63.5726 19.3047 62.6585 18.9167 61.9815 18.1406C61.3044 17.3594 60.9658 16.3125 60.9658 15C60.9658 13.5938 61.3226 12.474 62.0362 11.6406C62.7497 10.8073 63.708 10.3906 64.9112 10.3906ZM70.6415 7.52344H72.0477V19H70.6415V7.52344ZM74.364 7.52344H75.7702V19H74.364V7.52344ZM87.2543 17.6719C87.7803 17.6719 88.2126 17.6172 88.5512 17.5078C89.1553 17.3047 89.6501 16.9141 90.0355 16.3359C90.3428 15.8724 90.5642 15.2786 90.6996 14.5547C90.7777 14.1224 90.8168 13.7214 90.8168 13.3516C90.8168 11.9297 90.5329 10.8255 89.9652 10.0391C89.4027 9.2526 88.4939 8.85938 87.2387 8.85938H84.4808V17.6719H87.2543ZM82.9183 7.52344H87.5668C89.1449 7.52344 90.3689 8.08333 91.2387 9.20312C92.0147 10.2135 92.4027 11.5078 92.4027 13.0859C92.4027 14.3047 92.1735 15.4062 91.7152 16.3906C90.9079 18.1302 89.5199 19 87.5512 19H82.9183V7.52344ZM97.7033 18.0938C98.6356 18.0938 99.2737 17.7422 99.6174 17.0391C99.9664 16.3307 100.141 15.5443 100.141 14.6797C100.141 13.8984 100.016 13.263 99.7658 12.7734C99.37 12.0026 98.6877 11.6172 97.719 11.6172C96.8596 11.6172 96.2346 11.9453 95.844 12.6016C95.4533 13.2578 95.258 14.0495 95.258 14.9766C95.258 15.8672 95.4533 16.6094 95.844 17.2031C96.2346 17.7969 96.8544 18.0938 97.7033 18.0938ZM97.758 10.3906C98.8362 10.3906 99.7476 10.75 100.492 11.4688C101.237 12.1875 101.61 13.2448 101.61 14.6406C101.61 15.9896 101.281 17.1042 100.625 17.9844C99.969 18.8646 98.9507 19.3047 97.5705 19.3047C96.4195 19.3047 95.5054 18.9167 94.8283 18.1406C94.1513 17.3594 93.8127 16.3125 93.8127 15C93.8127 13.5938 94.1695 12.474 94.883 11.6406C95.5966 10.8073 96.5549 10.3906 97.758 10.3906ZM104.098 10.6328L105.707 17.2266L107.34 10.6328H108.918L110.559 17.1875L112.27 10.6328H113.676L111.246 19H109.785L108.082 12.5234L106.434 19H104.973L102.559 10.6328H104.098ZM115.172 10.6328H116.508V11.8203C116.904 11.3307 117.323 10.9792 117.766 10.7656C118.208 10.5521 118.7 10.4453 119.242 10.4453C120.43 10.4453 121.232 10.8594 121.648 11.6875C121.878 12.1406 121.992 12.7891 121.992 13.6328V19H120.562V13.7266C120.562 13.2161 120.487 12.8047 120.336 12.4922C120.086 11.9714 119.633 11.7109 118.976 11.7109C118.643 11.7109 118.37 11.7448 118.156 11.8125C117.771 11.9271 117.432 12.1562 117.141 12.5C116.906 12.776 116.753 13.0625 116.68 13.3594C116.612 13.651 116.578 14.0703 116.578 14.6172V19H115.172V10.6328ZM129.132 8.29688H130.554V10.6328H131.89V11.7812H130.554V17.2422C130.554 17.5339 130.653 17.7292 130.851 17.8281C130.961 17.8854 131.143 17.9141 131.398 17.9141C131.466 17.9141 131.539 17.9141 131.617 17.9141C131.695 17.9089 131.786 17.901 131.89 17.8906V19C131.729 19.0469 131.559 19.0807 131.382 19.1016C131.211 19.1224 131.023 19.1328 130.82 19.1328C130.164 19.1328 129.718 18.9661 129.484 18.6328C129.25 18.2943 129.132 17.8568 129.132 17.3203V11.7812H128V10.6328H129.132V8.29688ZM136.785 18.0938C137.717 18.0938 138.355 17.7422 138.699 17.0391C139.048 16.3307 139.222 15.5443 139.222 14.6797C139.222 13.8984 139.097 13.263 138.847 12.7734C138.451 12.0026 137.769 11.6172 136.8 11.6172C135.941 11.6172 135.316 11.9453 134.925 12.6016C134.535 13.2578 134.339 14.0495 134.339 14.9766C134.339 15.8672 134.535 16.6094 134.925 17.2031C135.316 17.7969 135.936 18.0938 136.785 18.0938ZM136.839 10.3906C137.917 10.3906 138.829 10.75 139.574 11.4688C140.318 12.1875 140.691 13.2448 140.691 14.6406C140.691 15.9896 140.363 17.1042 139.706 17.9844C139.05 18.8646 138.032 19.3047 136.652 19.3047C135.501 19.3047 134.587 18.9167 133.91 18.1406C133.233 17.3594 132.894 16.3125 132.894 15C132.894 13.5938 133.251 12.474 133.964 11.6406C134.678 10.8073 135.636 10.3906 136.839 10.3906ZM37.3921 33.5234H45.7593V34.9297H38.9077V38.4141H45.2437V39.7422H38.9077V43.6328H45.8765V45H37.3921V33.5234ZM47.0912 36.6328H48.9115L50.8333 39.5781L52.7787 36.6328L54.4896 36.6719L51.6693 40.7109L54.6146 45H52.8177L50.7396 41.8594L48.724 45H46.9427L49.888 40.7109L47.0912 36.6328ZM59.5793 44.0547C60.2355 44.0547 60.7798 43.7812 61.2121 43.2344C61.6496 42.6823 61.8683 41.8594 61.8683 40.7656C61.8683 40.099 61.772 39.526 61.5793 39.0469C61.2147 38.125 60.548 37.6641 59.5793 37.6641C58.6053 37.6641 57.9387 38.151 57.5793 39.125C57.3866 39.6458 57.2902 40.3073 57.2902 41.1094C57.2902 41.7552 57.3866 42.3047 57.5793 42.7578C57.9439 43.6224 58.6105 44.0547 59.5793 44.0547ZM55.9387 36.6719H57.3058V37.7812C57.5871 37.401 57.8944 37.1068 58.2277 36.8984C58.7017 36.5859 59.259 36.4297 59.8996 36.4297C60.8475 36.4297 61.6522 36.7943 62.3137 37.5234C62.9751 38.2474 63.3058 39.2839 63.3058 40.6328C63.3058 42.4557 62.8293 43.7578 61.8762 44.5391C61.272 45.0339 60.5689 45.2812 59.7668 45.2812C59.1366 45.2812 58.6079 45.1432 58.1808 44.8672C57.9308 44.7109 57.6522 44.4427 57.3449 44.0625V48.3359H55.9387V36.6719ZM65.1533 33.5234H66.5596V45H65.1533V33.5234ZM72.1571 44.0938C73.0894 44.0938 73.7274 43.7422 74.0712 43.0391C74.4201 42.3307 74.5946 41.5443 74.5946 40.6797C74.5946 39.8984 74.4696 39.263 74.2196 38.7734C73.8238 38.0026 73.1415 37.6172 72.1727 37.6172C71.3133 37.6172 70.6883 37.9453 70.2977 38.6016C69.9071 39.2578 69.7118 40.0495 69.7118 40.9766C69.7118 41.8672 69.9071 42.6094 70.2977 43.2031C70.6883 43.7969 71.3081 44.0938 72.1571 44.0938ZM72.2118 36.3906C73.2899 36.3906 74.2014 36.75 74.9462 37.4688C75.6909 38.1875 76.0633 39.2448 76.0633 40.6406C76.0633 41.9896 75.7352 43.1042 75.079 43.9844C74.4227 44.8646 73.4045 45.3047 72.0243 45.3047C70.8732 45.3047 69.9592 44.9167 69.2821 44.1406C68.605 43.3594 68.2665 42.3125 68.2665 41C68.2665 39.5938 68.6232 38.474 69.3368 37.6406C70.0503 36.8073 71.0087 36.3906 72.2118 36.3906ZM77.9421 36.6328H79.278V38.0781C79.3874 37.7969 79.6556 37.4557 80.0827 37.0547C80.5098 36.6484 81.002 36.4453 81.5593 36.4453C81.5853 36.4453 81.6296 36.4479 81.6921 36.4531C81.7546 36.4583 81.8614 36.4688 82.0124 36.4844V37.9688C81.9291 37.9531 81.8509 37.9427 81.778 37.9375C81.7103 37.9323 81.6348 37.9297 81.5515 37.9297C80.8431 37.9297 80.2989 38.1589 79.9187 38.6172C79.5384 39.0703 79.3483 39.5938 79.3483 40.1875V45H77.9421V36.6328ZM86.8755 36.4453C87.4693 36.4453 88.0448 36.5859 88.6021 36.8672C89.1594 37.1432 89.5839 37.5026 89.8755 37.9453C90.1568 38.3672 90.3443 38.8594 90.438 39.4219C90.5214 39.8073 90.563 40.4219 90.563 41.2656H84.4302C84.4563 42.1146 84.6568 42.7969 85.0318 43.3125C85.4068 43.8229 85.9875 44.0781 86.774 44.0781C87.5083 44.0781 88.0943 43.8359 88.5318 43.3516C88.7818 43.0703 88.9589 42.7448 89.063 42.375H90.4458C90.4094 42.6823 90.287 43.026 90.0787 43.4062C89.8755 43.7812 89.6464 44.0885 89.3912 44.3281C88.9641 44.7448 88.4354 45.026 87.8052 45.1719C87.4667 45.2552 87.0839 45.2969 86.6568 45.2969C85.6151 45.2969 84.7323 44.9193 84.0083 44.1641C83.2844 43.4036 82.9224 42.3411 82.9224 40.9766C82.9224 39.6328 83.287 38.5417 84.0162 37.7031C84.7453 36.8646 85.6984 36.4453 86.8755 36.4453ZM89.1177 40.1484C89.0604 39.5391 88.9276 39.0521 88.7193 38.6875C88.3339 38.0104 87.6906 37.6719 86.7896 37.6719C86.1438 37.6719 85.6021 37.9062 85.1646 38.375C84.7271 38.8385 84.4953 39.4297 84.4693 40.1484H89.1177ZM97.4065 33.5234H102.571C103.591 33.5234 104.414 33.8125 105.039 34.3906C105.664 34.9635 105.977 35.7708 105.977 36.8125C105.977 37.7083 105.698 38.4896 105.141 39.1562C104.584 39.8177 103.727 40.1484 102.571 40.1484H98.9612V45H97.4065V33.5234ZM104.406 36.8203C104.406 35.9766 104.094 35.4036 103.469 35.1016C103.125 34.9401 102.654 34.8594 102.055 34.8594H98.9612V38.8359H102.055C102.753 38.8359 103.318 38.6875 103.75 38.3906C104.188 38.0938 104.406 37.5703 104.406 36.8203ZM107.941 36.6328H109.277V38.0781C109.387 37.7969 109.655 37.4557 110.082 37.0547C110.509 36.6484 111.001 36.4453 111.559 36.4453C111.585 36.4453 111.629 36.4479 111.691 36.4531C111.754 36.4583 111.861 36.4688 112.012 36.4844V37.9688C111.928 37.9531 111.85 37.9427 111.777 37.9375C111.71 37.9323 111.634 37.9297 111.551 37.9297C110.843 37.9297 110.298 38.1589 109.918 38.6172C109.538 39.0703 109.348 39.5938 109.348 40.1875V45H107.941V36.6328ZM116.711 44.0938C117.643 44.0938 118.281 43.7422 118.625 43.0391C118.974 42.3307 119.148 41.5443 119.148 40.6797C119.148 39.8984 119.023 39.263 118.773 38.7734C118.378 38.0026 117.695 37.6172 116.726 37.6172C115.867 37.6172 115.242 37.9453 114.851 38.6016C114.461 39.2578 114.266 40.0495 114.266 40.9766C114.266 41.8672 114.461 42.6094 114.851 43.2031C115.242 43.7969 115.862 44.0938 116.711 44.0938ZM116.766 36.3906C117.844 36.3906 118.755 36.75 119.5 37.4688C120.245 38.1875 120.617 39.2448 120.617 40.6406C120.617 41.9896 120.289 43.1042 119.633 43.9844C118.976 44.8646 117.958 45.3047 116.578 45.3047C115.427 45.3047 114.513 44.9167 113.836 44.1406C113.159 43.3594 112.82 42.3125 112.82 41C112.82 39.5938 113.177 38.474 113.891 37.6406C114.604 36.8073 115.562 36.3906 116.766 36.3906ZM123.347 40.9141C123.347 41.8099 123.538 42.5599 123.918 43.1641C124.298 43.7682 124.907 44.0703 125.746 44.0703C126.397 44.0703 126.931 43.7917 127.347 43.2344C127.769 42.6719 127.98 41.8672 127.98 40.8203C127.98 39.763 127.764 38.9818 127.332 38.4766C126.899 37.9661 126.366 37.7109 125.73 37.7109C125.022 37.7109 124.446 37.9818 124.004 38.5234C123.566 39.0651 123.347 39.862 123.347 40.9141ZM125.465 36.4844C126.105 36.4844 126.642 36.6198 127.074 36.8906C127.324 37.0469 127.608 37.3203 127.926 37.7109V33.4844H129.277V45H128.011V43.8359C127.683 44.3516 127.295 44.724 126.847 44.9531C126.399 45.1823 125.886 45.2969 125.308 45.2969C124.376 45.2969 123.569 44.9062 122.886 44.125C122.204 43.3385 121.863 42.2943 121.863 40.9922C121.863 39.7734 122.173 38.7188 122.793 37.8281C123.418 36.9323 124.308 36.4844 125.465 36.4844ZM132.929 36.6328V42.1875C132.929 42.6146 132.997 42.9635 133.132 43.2344C133.382 43.7344 133.849 43.9844 134.531 43.9844C135.51 43.9844 136.177 43.5469 136.531 42.6719C136.724 42.2031 136.82 41.5599 136.82 40.7422V36.6328H138.226V45H136.898L136.914 43.7656C136.731 44.0833 136.505 44.3516 136.234 44.5703C135.698 45.0078 135.046 45.2266 134.281 45.2266C133.088 45.2266 132.276 44.8281 131.843 44.0312C131.609 43.6042 131.492 43.0339 131.492 42.3203V36.6328H132.929ZM143.816 36.3906C144.759 36.3906 145.524 36.6198 146.113 37.0781C146.706 37.5365 147.063 38.3255 147.183 39.4453H145.816C145.733 38.9297 145.542 38.5026 145.246 38.1641C144.949 37.8203 144.472 37.6484 143.816 37.6484C142.92 37.6484 142.279 38.0859 141.894 38.9609C141.644 39.5286 141.519 40.2292 141.519 41.0625C141.519 41.901 141.696 42.6068 142.05 43.1797C142.404 43.7526 142.962 44.0391 143.722 44.0391C144.305 44.0391 144.766 43.862 145.105 43.5078C145.449 43.1484 145.686 42.6589 145.816 42.0391H147.183C147.027 43.1484 146.636 43.9609 146.011 44.4766C145.386 44.987 144.587 45.2422 143.613 45.2422C142.519 45.2422 141.647 44.8438 140.996 44.0469C140.344 43.2448 140.019 42.2448 140.019 41.0469C140.019 39.5781 140.376 38.4349 141.089 37.6172C141.803 36.7995 142.712 36.3906 143.816 36.3906ZM149.031 34.2969H150.452V36.6328H151.788V37.7812H150.452V43.2422C150.452 43.5339 150.551 43.7292 150.749 43.8281C150.859 43.8854 151.041 43.9141 151.296 43.9141C151.364 43.9141 151.437 43.9141 151.515 43.9141C151.593 43.9089 151.684 43.901 151.788 43.8906V45C151.627 45.0469 151.458 45.0807 151.281 45.1016C151.109 45.1224 150.921 45.1328 150.718 45.1328C150.062 45.1328 149.616 44.9661 149.382 44.6328C149.148 44.2943 149.031 43.8568 149.031 43.3203V37.7812H147.898V36.6328H149.031V34.2969ZM154.198 42.375C154.24 42.8438 154.357 43.2031 154.55 43.4531C154.904 43.9062 155.519 44.1328 156.394 44.1328C156.914 44.1328 157.373 44.0208 157.769 43.7969C158.164 43.5677 158.362 43.2161 158.362 42.7422C158.362 42.3828 158.204 42.1094 157.886 41.9219C157.683 41.8073 157.282 41.6745 156.683 41.5234L155.566 41.2422C154.852 41.0651 154.326 40.8672 153.987 40.6484C153.383 40.2682 153.081 39.7422 153.081 39.0703C153.081 38.2786 153.365 37.638 153.933 37.1484C154.506 36.6589 155.274 36.4141 156.237 36.4141C157.498 36.4141 158.407 36.7839 158.964 37.5234C159.313 37.9922 159.482 38.4974 159.472 39.0391H158.144C158.118 38.7214 158.006 38.4323 157.808 38.1719C157.485 37.8021 156.925 37.6172 156.128 37.6172C155.597 37.6172 155.193 37.7188 154.917 37.9219C154.646 38.125 154.511 38.3932 154.511 38.7266C154.511 39.0911 154.691 39.3828 155.05 39.6016C155.258 39.7318 155.566 39.8464 155.972 39.9453L156.901 40.1719C157.912 40.4167 158.589 40.6536 158.933 40.8828C159.48 41.2422 159.753 41.8073 159.753 42.5781C159.753 43.3229 159.469 43.9661 158.901 44.5078C158.339 45.0495 157.48 45.3203 156.323 45.3203C155.079 45.3203 154.196 45.0391 153.675 44.4766C153.159 43.9089 152.883 43.2083 152.847 42.375H154.198Z" fill="white"/>
</svg>
