<svg width="28" height="35" viewBox="0 0 28 35" fill="none" xmlns="http://www.w3.org/2000/svg">
<path d="M11.8926 27.0937L6.76034 34.65C6.67779 34.7575 6.56504 34.8458 6.43228 34.9069C6.29952 34.968 6.15095 35 6 35C5.84905 35 5.70048 34.968 5.56772 34.9069C5.43496 34.8458 5.32221 34.7575 5.23966 34.65L0.107354 27.0937C0.0134291 26.9465 -0.0202036 26.7768 0.0117582 26.6115C0.04372 26.4462 0.139459 26.2947 0.28388 26.1808C0.428302 26.0669 0.613192 25.9971 0.809401 25.9824C1.00561 25.9678 1.20198 26.009 1.36755 26.0998L5.11998 28.2912L5.11998 0.748444C5.11998 0.549946 5.21269 0.359573 5.37773 0.219215C5.54276 0.0788536 5.7666 0 6 0C6.2334 0 6.45724 0.0788536 6.62227 0.219215C6.78731 0.359573 6.88002 0.549946 6.88002 0.748444L6.88002 28.2912L10.6325 26.0998C10.798 26.009 10.9944 25.9678 11.1906 25.9824C11.3868 25.9971 11.5717 26.0669 11.7161 26.1808C11.8605 26.2947 11.9563 26.4462 11.9882 26.6115C12.0202 26.7768 11.9866 26.9465 11.8926 27.0937Z" fill="#1D1D1B"/>
<path d="M26.06 2.8C26.06 3.28667 25.99 3.71 25.85 4.07C25.71 4.43 25.4967 4.76667 25.21 5.08L24.46 4.43C24.6667 4.18333 24.8167 3.93333 24.91 3.68C25.0033 3.43333 25.05 3.16667 25.05 2.88C25.05 2.56 24.9767 2.3 24.83 2.1C24.69 1.90667 24.49 1.81 24.23 1.81C24.0567 1.81 23.9133 1.84667 23.8 1.92C23.6867 2 23.58 2.14 23.48 2.34C23.38 2.54 23.27 2.83667 23.15 3.23C22.9367 3.91 22.67 4.42 22.35 4.76C22.0367 5.10667 21.5767 5.28 20.97 5.28C20.5567 5.28 20.19 5.17333 19.87 4.96C19.55 4.75333 19.3 4.45333 19.12 4.06C18.94 3.66667 18.85 3.2 18.85 2.66C18.85 2.13333 18.9333 1.66 19.1 1.24C19.2733 0.826667 19.5067 0.47 19.8 0.17L20.56 0.85C20.3333 1.11667 20.16 1.39333 20.04 1.68C19.9267 1.96667 19.87 2.28333 19.87 2.63C19.87 3.01 19.96 3.31667 20.14 3.55C20.32 3.78333 20.5733 3.9 20.9 3.9C21.1 3.9 21.2633 3.86 21.39 3.78C21.5233 3.7 21.64 3.56333 21.74 3.37C21.8467 3.17667 21.9567 2.89667 22.07 2.53C22.2967 1.79667 22.57 1.26667 22.89 0.94C23.21 0.613333 23.63 0.45 24.15 0.45C24.53 0.45 24.8633 0.55 25.15 0.75C25.4367 0.95 25.66 1.22667 25.82 1.58C25.98 1.94 26.06 2.34667 26.06 2.8ZM24.44 8.4957C24.44 8.84237 24.39 9.15237 24.29 9.4257C24.19 9.7057 24.0333 9.96904 23.82 10.2157L23.05 9.6457C23.1833 9.4657 23.28 9.29237 23.34 9.1257C23.4 8.95904 23.43 8.7757 23.43 8.5757C23.43 7.78237 22.8267 7.3857 21.62 7.3857C21.0067 7.3857 20.5633 7.48904 20.29 7.6957C20.0233 7.90237 19.89 8.1957 19.89 8.5757C19.89 8.76237 19.92 8.93237 19.98 9.0857C20.04 9.2457 20.1367 9.43237 20.27 9.6457L19.46 10.2157C19.0533 9.7157 18.85 9.1457 18.85 8.5057C18.85 7.99904 18.96 7.55904 19.18 7.1857C19.4067 6.81237 19.7267 6.5257 20.14 6.3257C20.5533 6.1257 21.04 6.0257 21.6 6.0257C22.16 6.0257 22.6533 6.1257 23.08 6.3257C23.5133 6.5257 23.8467 6.81237 24.08 7.1857C24.32 7.55904 24.44 7.9957 24.44 8.4957ZM24.43 13.7511C24.43 13.9444 24.4067 14.1211 24.36 14.2811L23.12 14.0611C23.16 13.9011 23.18 13.7444 23.18 13.5911C23.18 13.2778 23.0667 13.0311 22.84 12.8511C22.62 12.6711 22.28 12.5278 21.82 12.4211H19V11.1411H24.29V12.2511L23.25 12.3711C23.63 12.4978 23.92 12.6811 24.12 12.9211C24.3267 13.1611 24.43 13.4378 24.43 13.7511ZM24.44 16.9339C24.44 17.7139 24.19 18.3206 23.69 18.7539C23.1967 19.1939 22.5167 19.4139 21.65 19.4139C21.0967 19.4139 20.6067 19.3139 20.18 19.1139C19.76 18.9139 19.4333 18.6272 19.2 18.2539C18.9667 17.8806 18.85 17.4372 18.85 16.9239C18.85 16.1439 19.0967 15.5339 19.59 15.0939C20.09 14.6539 20.7767 14.4339 21.65 14.4339C22.2033 14.4339 22.69 14.5339 23.11 14.7339C23.53 14.9339 23.8567 15.2206 24.09 15.5939C24.3233 15.9739 24.44 16.4206 24.44 16.9339ZM23.47 16.9339C23.47 16.1672 22.8633 15.7839 21.65 15.7839C21.0233 15.7839 20.56 15.8772 20.26 16.0639C19.9667 16.2572 19.82 16.5439 19.82 16.9239C19.82 17.3039 19.97 17.5872 20.27 17.7739C20.57 17.9672 21.03 18.0639 21.65 18.0639C22.27 18.0639 22.7267 17.9672 23.02 17.7739C23.32 17.5872 23.47 17.3072 23.47 16.9339ZM18.85 21.8638C18.85 21.4571 18.9667 21.1371 19.2 20.9038C19.44 20.6771 19.7767 20.5638 20.21 20.5638H26.41L26.55 21.8438H20.25C20.0033 21.8438 19.88 21.9438 19.88 22.1438C19.88 22.2438 19.8967 22.3438 19.93 22.4438L19.03 22.7138C18.91 22.4471 18.85 22.1638 18.85 21.8638ZM18.85 24.813C18.85 24.4063 18.9667 24.0863 19.2 23.853C19.44 23.6263 19.7767 23.513 20.21 23.513H26.41L26.55 24.793H20.25C20.0033 24.793 19.88 24.893 19.88 25.093C19.88 25.193 19.8967 25.293 19.93 25.393L19.03 25.663C18.91 25.3963 18.85 25.113 18.85 24.813Z" fill="#1D1D1B"/>
</svg>
