<svg width="200" height="200" viewBox="0 0 200 200" fill="none" xmlns="http://www.w3.org/2000/svg">
<path d="M189.364 116.564L189.306 116.593C182.451 121.85 179.546 130.797 181.986 139.076L182.015 139.134C185.907 152.293 176.264 165.567 162.553 165.916H162.495C153.839 166.148 146.228 171.667 143.353 179.829V179.858C138.763 192.813 123.136 197.896 111.836 190.082C104.82 185.291 95.5443 185.041 88.1623 190.082H88.1334C76.8342 197.867 61.2064 192.813 56.6459 179.829C53.7443 171.646 46.1451 166.147 37.5037 165.915H37.4455C23.7353 165.566 14.0912 152.292 17.9838 139.134L18.0127 139.075C20.4521 130.796 17.5475 121.85 10.6928 116.593L10.6346 116.564C-0.258398 108.198 -0.258398 91.8152 10.6346 83.4496L10.6928 83.4207C17.5475 78.1633 20.4521 69.2164 17.9838 60.9379V60.8797C14.0619 47.7215 23.735 34.4465 37.4455 34.098H37.5037C46.1307 33.8656 53.7701 28.3465 56.6459 20.1844V20.1555C61.2061 7.20039 76.8342 2.11719 88.1334 9.93126H88.1623C95.2787 14.8402 104.69 14.8402 111.836 9.93126C123.249 2.04961 138.79 7.27813 143.353 20.1555V20.1844C146.228 28.3176 153.838 33.866 162.495 34.098H162.553C176.263 34.4465 185.907 47.7215 182.015 60.8797L181.986 60.9379C179.546 69.2164 182.451 78.1633 189.306 83.4207L189.364 83.4496C200.257 91.8152 200.257 108.198 189.364 116.564Z" fill="url(#paint0_linear_500_13948)"/>
<path d="M99.9988 154.108C129.882 154.108 154.107 129.883 154.107 100C154.107 70.1169 129.882 45.8918 99.9988 45.8918C70.1157 45.8918 45.8906 70.1169 45.8906 100C45.8906 129.883 70.1157 154.108 99.9988 154.108Z" fill="url(#paint1_linear_500_13948)"/>
<path d="M87.1276 121.182L75.1624 108.452C72.0288 105.118 72.1905 99.8754 75.5237 96.7418C78.8569 93.6043 84.1019 93.7727 87.2327 97.1047L92.9444 103.179L117.223 75.4297C120.232 71.9859 125.467 71.6367 128.913 74.6504C132.357 77.6641 132.705 82.8969 129.692 86.3406L99.3976 120.964C96.1702 124.648 90.4745 124.745 87.1276 121.182Z" fill="#1D1D1B"/>
<defs>
<linearGradient id="paint0_linear_500_13948" x1="99.9998" y1="193.787" x2="99.9998" y2="6.21289" gradientUnits="userSpaceOnUse">
<stop stop-color="#20C59D"/>
<stop offset="0.3103" stop-color="#38CE8C"/>
<stop offset="0.9631" stop-color="#75E461"/>
<stop offset="1" stop-color="#79E55E"/>
</linearGradient>
<linearGradient id="paint1_linear_500_13948" x1="99.9988" y1="154.108" x2="99.9988" y2="45.8918" gradientUnits="userSpaceOnUse">
<stop offset="0.0168" stop-color="#CCCCCC"/>
<stop offset="1" stop-color="#F2F2F2"/>
</linearGradient>
</defs>
</svg>
