<svg width="51" height="60" viewBox="0 0 51 60" fill="none" xmlns="http://www.w3.org/2000/svg">
<path d="M48.1835 25.7247C48.1835 28.3385 50.7341 31.3215 49.9714 33.6777C49.1746 36.1166 45.3317 37.03 43.8548 39.0607C43.7236 39.2502 43.6021 39.4445 43.4952 39.6583C42.3973 41.8008 42.4896 45.1822 40.6191 46.5425C38.5884 48.0194 34.9544 46.5182 32.5106 47.3101C31.9665 47.485 31.4467 47.8008 30.9317 48.1749C29.1875 49.4478 27.5114 51.4494 25.5001 51.4494C23.4888 51.4494 21.8078 49.4429 20.0685 48.1749C19.5535 47.8008 19.0288 47.485 18.4896 47.3101C16.0507 46.5134 12.4118 48.0194 10.3811 46.5425C8.51062 45.187 8.60293 41.8008 7.50496 39.6583C7.39807 39.4445 7.27662 39.2502 7.14544 39.0607C5.66852 37.03 1.82075 36.1166 1.02884 33.6777C0.266091 31.3215 2.8167 28.3385 2.8167 25.7247C2.8167 23.1109 0.266091 20.1279 1.02884 17.7717C1.82561 15.3328 5.66852 14.4194 7.14544 12.3887C8.6418 10.3336 8.32601 6.40324 10.3811 4.90688C12.4118 3.42996 16.0458 4.93117 18.4896 4.13927C20.8361 3.37652 22.8815 0 25.4952 0C28.109 0 30.1544 3.37652 32.5106 4.14413C34.9495 4.94089 38.5884 3.43482 40.6191 4.91174C42.6742 6.40324 42.3633 10.3336 43.8548 12.3935C45.3317 14.4243 49.1795 15.3377 49.9714 17.7765C50.7341 20.1279 48.1835 23.1109 48.1835 25.7247Z" fill="#C5C5C5"/>
<path d="M25.4952 43.3746C35.2431 43.3746 43.1454 35.4724 43.1454 25.7244C43.1454 15.9765 35.2431 8.07422 25.4952 8.07422C15.7472 8.07422 7.84497 15.9765 7.84497 25.7244C7.84497 35.4724 15.7472 43.3746 25.4952 43.3746Z" fill="#1D1D1B"/>
<path d="M26.8701 15.9788L28.8669 20.0258C29.0904 20.4776 29.5228 20.7934 30.0183 20.8663L34.488 21.5173C35.7463 21.7019 36.2467 23.242 35.3382 24.1311L32.1074 27.2841C31.7479 27.6339 31.5827 28.144 31.6653 28.6396L32.428 33.0898C32.6418 34.3432 31.3301 35.2954 30.2029 34.7027L26.2094 32.6039C25.7624 32.3707 25.228 32.3707 24.7859 32.6039L20.7924 34.7027C19.6701 35.2954 18.3535 34.3384 18.5673 33.0898L19.3301 28.6396C19.4175 28.144 19.2523 27.6339 18.888 27.2841L15.6572 24.1311C14.7487 23.2469 15.2491 21.7019 16.5074 21.5173L20.977 20.8663C21.4774 20.7934 21.905 20.4825 22.1284 20.0258L24.1252 15.9788C24.6839 14.8371 26.3066 14.8371 26.8701 15.9788Z" fill="#FFFEEB"/>
<path d="M20.0634 48.1748L15.4529 59.9999L9.37999 55.2048L1.66016 54.6266L7.49498 39.6582C8.59295 41.8007 8.50064 45.1821 10.3711 46.5424C12.4019 48.0193 16.0359 46.5181 18.4796 47.31C19.0237 47.4849 19.5436 47.8007 20.0634 48.1748Z" fill="#009FE3"/>
<path d="M49.3249 54.6266L41.605 55.2048L35.5322 59.9999L30.9216 48.1748C31.4366 47.8007 31.9613 47.4849 32.5006 47.31C34.9394 46.5133 38.5783 48.0193 40.6091 46.5424C42.4795 45.187 42.3872 41.8007 43.4852 39.6582L49.3249 54.6266Z" fill="#009FE3"/>
</svg>
