<svg width="61" height="60" viewBox="0 0 61 60" fill="none" xmlns="http://www.w3.org/2000/svg">
<g clip-path="url(#clip0_222_1013)">
<path d="M20.9866 1.90035C21.3467 3.63449 22.2493 5.35551 23.6746 6.78086C25.634 8.74035 28.1521 9.7116 30.4948 9.64445C30.4948 9.64445 28.8379 1.73336 21.6808 1.01465L20.9866 1.90035Z" fill="#98DB7C"/>
<path d="M21.925 0.00563452C21.3149 -0.0604592 20.7899 0.464541 20.856 1.07462C20.8857 1.34954 20.9292 1.62493 20.9864 1.90032C22.8605 1.88274 24.7786 2.71114 26.2618 4.19392C27.7425 5.67352 28.5579 7.5845 28.5546 9.46173C28.9012 9.5338 29.248 9.59028 29.5934 9.61888L30.3213 9.63985C30.3789 9.63939 30.4373 9.64606 30.4948 9.64442C30.5619 7.30173 29.5907 4.7836 27.6312 2.82423C25.9795 1.17247 23.9309 0.2229 21.925 0.00563452Z" fill="#77CC7D"/>
<path d="M17.742 11.7014C17.4333 13.6483 16.3901 15.2601 15.0136 16.2007C13.9955 14.8805 13.502 13.0251 13.8106 11.0782C14.0429 9.61339 14.6908 8.33839 15.5838 7.39608C16.0659 6.88737 16.8934 7.01862 17.1945 7.65144C17.7523 8.82366 17.9741 10.2367 17.742 11.7014Z" fill="#77CC7D"/>
<path d="M9.88731 17.4064C11.8342 17.715 13.6896 17.2214 15.0098 16.2033C14.0691 14.8268 12.4575 13.7836 10.5105 13.475C9.04567 13.2427 7.63274 13.4646 6.46052 14.0223C5.8277 14.3234 5.69645 15.1511 6.20517 15.6331C7.14747 16.5262 8.42247 17.1742 9.88731 17.4064Z" fill="#98DB7C"/>
<path d="M17.6275 20.7703C17.8252 20.7703 18.0237 20.7103 18.1959 20.5854C18.6281 20.271 18.7245 19.6653 18.4096 19.2326L15.443 15.1435C15.13 14.7113 14.5238 14.6144 14.0907 14.9292C13.6585 15.2437 13.562 15.8494 13.8769 16.2821L16.8435 20.3712C17.0327 20.6318 17.3277 20.7703 17.6275 20.7703Z" fill="#52BD7E"/>
<path d="M43.2581 11.7039C43.5668 13.6507 44.61 15.2625 45.9865 16.2032C47.0046 14.8829 47.4981 13.0275 47.1895 11.0807C46.9572 9.61583 46.3093 8.34083 45.4163 7.39853C44.9342 6.88981 44.1067 7.02106 43.8056 7.65388C43.2478 8.8261 43.026 10.239 43.2581 11.7039Z" fill="#98DB7C"/>
<path d="M51.1127 17.4088C49.1659 17.7175 47.3105 17.2239 45.9902 16.2058C46.9309 14.8293 48.5426 13.7861 50.4895 13.4774C51.9544 13.2451 53.3673 13.4671 54.5395 14.0248C55.1723 14.3258 55.3036 15.1535 54.7949 15.6355C53.8526 16.5286 52.5776 17.1767 51.1127 17.4088Z" fill="#77CC7D"/>
<path d="M38.2454 0.13623C36.5113 0.496348 34.7903 1.39893 33.3649 2.82428C31.4054 4.78365 30.4342 7.30178 30.5013 9.64447C30.5013 9.64447 38.4124 7.98756 39.1311 0.830449L38.2454 0.13623Z" fill="#98DB7C"/>
<path d="M40.1403 1.07462C40.2064 0.464541 39.6814 -0.0604592 39.0713 0.00563452C38.7964 0.0354001 38.521 0.0788767 38.2456 0.136064C38.2632 2.01013 37.4348 3.92825 35.952 5.41149C34.4724 6.89204 32.5614 7.70755 30.6842 7.70415C30.6121 8.05079 30.5555 8.39755 30.527 8.7429L30.5061 9.47087C30.5065 9.52841 30.4998 9.58688 30.5015 9.64431C32.8442 9.71145 35.3623 8.7402 37.3217 6.78071C38.9734 5.12919 39.923 3.08063 40.1403 1.07462Z" fill="#77CC7D"/>
<path d="M31.4665 16.423H29.5298V8.4898C29.5298 7.95496 29.9634 7.52148 30.4981 7.52148C31.0329 7.52148 31.4664 7.95508 31.4664 8.4898V16.423H31.4665Z" fill="#52BD7E"/>
<path d="M43.3727 20.7733C43.175 20.7733 42.9764 20.7133 42.8043 20.5883C42.3721 20.2739 42.2757 19.6682 42.5905 19.2355L45.5571 15.1464C45.8702 14.7142 46.4764 14.6173 46.9095 14.9322C47.3417 15.2466 47.4381 15.8523 47.1232 16.285L44.1566 20.3741C43.9675 20.6346 43.6724 20.7733 43.3727 20.7733Z" fill="#52BD7E"/>
<path d="M37.8312 16.69C35.535 15.8896 33.0675 15.4546 30.4982 15.4546C30.0207 15.4546 29.5466 15.4696 29.0764 15.4992L10.498 27.9149C9.04273 30.8753 8.22559 34.2059 8.22559 37.7274C8.22559 43.8935 10.7313 49.4745 14.78 53.5074C14.78 53.5074 21.4612 59.0705 30.4982 59.0705C41.5941 59.0705 51.5461 50.0282 51.5461 37.7274C51.5461 22.2663 37.8312 16.69 37.8312 16.69Z" fill="#009FE3"/>
<path d="M52.5603 34.6542L46.6187 33.3896C46.6187 45.6905 36.6469 55.6623 24.346 55.6623C20.9217 55.6623 17.6783 54.8883 14.7798 53.5076C16.6688 55.3893 18.8939 56.934 21.3569 58.0439L22.7209 57.7821L24.3218 59.1327C26.2829 59.6975 28.355 60.0001 30.4979 60.0001C42.7988 60.0001 52.7706 50.0283 52.7706 37.7275C52.7707 36.6848 52.699 35.6587 52.5603 34.6542Z" fill="#009ADC"/>
<path d="M40.108 17.6283C39.3707 17.2752 38.6109 16.9615 37.8312 16.6899L35.8325 18.4122C35.3483 18.8263 35.1946 19.5098 35.4553 20.0912C35.7747 20.8038 36.605 21.1305 37.3244 20.8268L37.7894 20.6304C38.3146 20.4087 38.9225 20.5372 39.3127 20.9528C39.3127 22.0135 38.5658 23.3236 37.6528 23.8638L34.3388 25.8247C33.4646 26.342 32.9285 27.2823 32.9285 28.2981V28.8453C32.9285 30.0187 33.8798 30.9702 35.0533 30.9702C36.1536 30.9702 37.0719 30.1303 37.1697 29.0342L37.1705 29.0247L37.175 28.9722C37.261 27.9654 38.1034 27.1918 39.114 27.1918H41.8992C42.9425 27.1918 43.7882 28.0377 43.7882 29.081C43.7882 30.1243 42.9425 30.9702 41.8992 30.9702H37.2881C34.8803 30.9702 32.9285 32.922 32.9285 35.3298C32.9285 37.7375 34.8803 39.6894 37.2881 39.6894H37.9123C39.1027 39.6894 40.0678 40.6544 40.0678 41.8448V49.1661L42.205 49.5003L47.5637 40.0515L47.4992 34.687L49.5863 34.1271C48.7209 23.3862 40.108 17.6283 40.108 17.6283Z" fill="#98DB7C"/>
<path d="M52.5604 34.654C51.5208 27.1212 46.718 20.7927 40.1078 17.6284C44.1377 21.659 46.6188 27.2398 46.6188 33.3894C46.6188 39.5535 44.114 45.1336 40.0676 49.1663V49.5476C40.0676 50.3966 40.6566 51.1555 41.4922 51.3065C42.2329 51.4403 42.9577 51.0884 43.3174 50.454L48.676 41.0052C49.1466 40.1754 49.2678 39.1926 49.013 38.2733L48.5949 36.7649C48.4624 36.2868 48.8533 35.8255 49.3467 35.8779L49.6517 35.9103C50.4438 35.9943 51.2352 35.7458 51.8371 35.2241L52.5604 34.654Z" fill="#77CC7D"/>
<path d="M30.29 17.4235L29.0765 15.4995C20.9037 16.0147 13.9278 20.9346 10.498 27.9151L12.0006 37.9633C12.1689 39.136 12.8536 40.1487 13.8797 40.7422L14.4895 41.0949L13.7842 42.9977C13.3531 44.1609 13.717 45.4693 14.6867 46.2429L15.9665 47.2639C16.4038 47.6128 16.7535 48.059 16.9879 48.5669L20.0718 55.2516L22.1359 56.1946L23.4914 55.6461L23.1314 54.1368C22.8518 52.9645 23.0025 51.7306 23.5561 50.66L25.7145 46.4858C26.309 45.336 25.7632 43.9253 24.5498 43.475L22.7766 42.817C22.2133 42.608 21.8396 42.0706 21.8396 41.4698V41.3314C21.8396 40.5378 21.1962 39.8944 20.4026 39.8944H17.3228C16.6417 39.8944 15.9727 39.7149 15.3831 39.3738L14.85 39.0653C14.3484 38.7752 14.0062 38.2723 13.9202 37.6992L13.77 36.699C13.6457 35.8702 14.0193 35.0457 14.7244 34.5928C15.2596 34.2489 15.9572 34.2981 16.439 34.7135L16.833 35.0531C17.3126 35.4665 18.0598 35.2216 18.2015 34.6044L18.6216 32.774C18.8454 31.7989 19.5603 31.0103 20.5088 30.6923L23.6089 29.6526C24.4942 29.3558 24.8656 28.3065 24.3644 27.5187L22.9552 25.3042C22.5679 24.6957 21.7895 24.4686 21.1357 24.7733L19.8873 25.3551C19.2098 25.6709 18.3895 25.393 18.0549 24.6932C17.7327 24.0195 18.0674 23.2072 18.722 22.8478L21.5643 21.2873C22.5345 20.7547 23.7505 21.0433 24.3777 21.9553L24.6497 22.3508C25.0518 22.9355 25.716 23.2847 26.4257 23.2847H27.7418C28.6144 23.2847 29.4009 22.7587 29.734 21.9523L30.5172 20.0565C30.8734 19.1942 30.7887 18.2123 30.29 17.4235Z" fill="#98DB7C"/>
<path d="M21.3571 58.0438C22.3116 58.4742 23.3015 58.8385 24.322 59.1326L23.4912 55.6459C22.3249 55.6016 21.185 55.4687 20.0715 55.2515L21.3571 58.0438Z" fill="#77CC7D"/>
</g>
<defs>
<clipPath id="clip0_222_1013">
<rect width="60" height="60" fill="white" transform="translate(0.5)"/>
</clipPath>
</defs>
</svg>
