<svg width="61" height="60" viewBox="0 0 61 60" fill="none" xmlns="http://www.w3.org/2000/svg">
<path d="M19.8682 38.444C22.0324 37.0505 21.7903 32.9032 21.7903 31.9355H39.2097C39.2097 32.9032 38.9413 37.0505 41.1054 38.444L30.5 50.3226L19.8682 38.444Z" fill="#FFD7A3"/>
<path d="M37.2744 42.5808L41.1056 38.444C38.9414 37.0507 39.2099 32.9032 39.2099 31.9355H21.7905C23.0403 35.5288 31.3067 41.6937 37.2744 42.5808Z" fill="#FDC88E"/>
<path d="M44.0485 19.3547C44.0485 27.1045 39.5861 36.7741 30.5002 36.7741C21.4143 36.7741 16.9519 27.1045 16.9519 19.3547C16.9519 11.6049 23.0178 8.70947 30.5002 8.70947C37.9826 8.70947 44.0485 11.6049 44.0485 19.3547Z" fill="#FFE1B2"/>
<path d="M17.4174 20.3228C15.9667 19.9599 15.0164 20.7353 15.0164 22.2584C15.0164 24.2745 16.9672 29.214 19.018 26.1293C21.0689 23.0446 17.4174 20.3228 17.4174 20.3228Z" fill="#FFE1B2"/>
<path d="M43.3632 20.3228C44.9466 19.9599 45.984 20.7353 45.984 22.2584C45.984 24.2745 43.8547 29.214 41.616 26.1293C39.3774 23.0446 43.3632 20.3228 43.3632 20.3228Z" fill="#FFE1B2"/>
<path d="M19.855 16.2703C19.4517 17.3188 18.8873 22.0768 18.8873 22.0768L16.9518 21.1091L16.4075 14.6978L19.855 16.2703Z" fill="#1D1D1B"/>
<path d="M41.1453 16.2703C41.5485 17.3188 42.113 22.0768 42.113 22.0768L44.0485 21.1091L44.5928 14.6978L41.1453 16.2703Z" fill="#1D1D1B"/>
<path d="M42.1131 5.44085V3.87254C42.1131 3.33722 41.6791 2.90323 41.1438 2.90323H40.1792C39.9311 2.90323 39.7102 3.00353 39.5389 3.15677C37.5835 1.92259 35.1797 1.25183 32.4357 1.04637V0.969312C32.4357 0.433992 32.0017 0 31.4664 0H29.534C28.9986 0 28.5646 0.433992 28.5646 0.969312V1.04637C25.8033 1.25374 23.4082 1.93289 21.4655 3.15942C21.2936 3.00426 21.0709 2.90323 20.821 2.90323H19.8564C19.3211 2.90323 18.8871 3.33722 18.8871 3.87254V5.44262C17.0254 7.75317 15.9839 11.0314 15.9839 15.484V17.4195H45.0162V15.484C45.0163 11.0047 43.9633 7.73758 42.1131 5.44085Z" fill="#009FE3"/>
<path d="M30.5 13.5483C24.3041 13.5483 15.0317 15.2814 15.0317 17.4193H45.9684C45.9683 15.2815 36.6959 13.5483 30.5 13.5483Z" fill="#0078AB"/>
<path d="M52.7581 59.9998C54.3616 59.9998 55.6613 58.7 55.6613 57.0965V50.2234C55.6613 45.9652 52.3432 41.4194 48.2877 40.1219L42.2333 38.1846C38.976 40.6753 34.3209 44.0729 30.5001 44.0729C26.6793 44.0729 22.0242 40.6753 18.7669 38.1846L12.7125 40.1219C8.65697 41.4194 5.33887 45.9652 5.33887 50.2234V57.0965C5.33887 58.7 6.63864 59.9998 8.2421 59.9998H52.7581Z" fill="#C5C5C5"/>
<path d="M32.4356 46.9765C32.4356 47.5087 32.0002 47.9442 31.4679 47.9442H29.5324C29.0002 47.9442 28.5647 47.5087 28.5647 46.9765V45.0409C28.5647 44.5087 29.0002 44.0732 29.5324 44.0732H31.4679C32.0002 44.0732 32.4356 44.5087 32.4356 45.0409V46.9765Z" fill="#1D1D1B"/>
<path d="M30.5001 44.0728L26.4622 48.1107C26.0417 48.5311 25.3451 48.4764 24.9952 47.9955L17.9194 38.2664L20.1734 36.0124C20.5374 35.6485 21.1225 35.6332 21.505 35.9774L30.5001 44.0728Z" fill="#1D1D1B"/>
<path d="M30.5 44.073L34.5378 48.1108C34.9583 48.5313 35.655 48.4766 36.0048 47.9957L43.0806 38.2664L40.8267 36.0124C40.4627 35.6485 39.8775 35.6332 39.495 35.9774L30.5 44.073Z" fill="#1D1D1B"/>
<path d="M31.8295 47.3999L30.5 47.9442L29.1705 47.3999L28.5645 60.0002H32.4355L31.8295 47.3999Z" fill="#1D1D1B"/>
<path d="M17.989 38.4419L12.7125 40.1304C8.65697 41.4279 5.33887 45.9737 5.33887 50.2319V57.105C5.33887 58.5917 6.46054 59.8032 7.9012 59.9738H24.6936L17.989 38.4419Z" fill="#1D1D1B"/>
<path d="M43.0112 38.4419L48.2878 40.1304C52.3433 41.4279 55.6614 45.9737 55.6614 50.2319V57.105C55.6614 58.5917 54.5397 59.8032 53.0991 59.9738H36.3066L43.0112 38.4419Z" fill="#1D1D1B"/>
<path d="M46.4677 56.1289H39.7526C38.9509 56.1289 38.301 56.7789 38.301 57.5804V59.8909H47.9194V57.5804C47.9194 56.7788 47.2696 56.1289 46.4677 56.1289Z" fill="#1D1D1B"/>
<path d="M15.9675 51.6328C15.6649 51.6328 15.4194 51.8783 15.4194 52.1809V56.1288H16.5157V52.1809C16.5155 51.8783 16.2702 51.6328 15.9675 51.6328Z" fill="#009FE3"/>
<path d="M17.9195 53.2056C17.6168 53.2056 17.3713 53.451 17.3713 53.7537V57.7015H18.4676V53.7537C18.4676 53.451 18.2221 53.2056 17.9195 53.2056Z" fill="white"/>
<path d="M21.2475 56.1289H14.5324C13.7307 56.1289 13.0808 56.7789 13.0808 57.5804V59.8909H22.6994V57.5804C22.6992 56.7788 22.0493 56.1289 21.2475 56.1289Z" fill="#1D1D1B"/>
</svg>
