<svg width="61" height="60" viewBox="0 0 61 60" fill="none" xmlns="http://www.w3.org/2000/svg">
<path d="M36.9303 34.6712L7.56348 17.5732L7.59195 29.9885L36.9588 47.0865L36.9303 34.6712Z" fill="#009FE3"/>
<path d="M55.0541 24.2078L25.6872 7.10986L16.6169 8.07681L45.9838 25.1748L55.0541 24.2078Z" fill="#2F873B"/>
<path d="M56.5753 23.2952L27.2085 6.19727L16.6143 7.03045L45.9811 24.1284L56.5753 23.2952Z" fill="#ECF0F1"/>
<path d="M45.9841 25.1746L16.6172 8.07666L7.56348 17.5736L36.9304 34.6716L45.9841 25.1746Z" fill="#2F873B"/>
<path d="M45.9841 24.9904L36.9304 34.4873L36.9589 47.0865L55.0829 36.6226L55.0544 24.0234L45.9841 24.9904Z" fill="#009FE3"/>
<path d="M35.3288 35.2991L5.96191 18.2012L6.28308 18.9151L35.65 36.0131L35.3288 35.2991Z" fill="#C5C5C5"/>
<path d="M45.9811 24.1282L16.6142 7.03027L5.96191 18.2011L35.3288 35.299L45.9811 24.1282Z" fill="#E0E2E2"/>
<path d="M45.9812 24.1286L35.3289 35.2994L35.65 36.0133L45.9841 25.1747L56.3382 24.069L56.5754 23.2954L45.9812 24.1286Z" fill="#C4C6C6"/>
<path d="M36.9504 30.1779L29.9163 26.0901L29.9065 24.4741L36.9406 28.5619L36.9504 30.1779Z" fill="#C5C5C5"/>
<path d="M39.9428 26.8228L36.942 28.5631L29.9053 24.4672L32.921 22.7417L39.9428 26.8228Z" fill="#ECF0F1"/>
<path d="M39.9492 26.8252L39.9527 27.4276L36.95 30.1784L36.9402 28.5625L39.9492 26.8252Z" fill="#C4C6C6"/>
<path d="M19.959 20.3029L12.9248 16.2151L12.915 14.5991L19.9492 18.6869L19.959 20.3029Z" fill="#C5C5C5"/>
<path d="M22.9515 16.9478L19.9508 18.6881L12.9141 14.5922L15.9298 12.8667L22.9515 16.9478Z" fill="#ECF0F1"/>
<path d="M22.9578 16.9497L22.9612 17.5521L19.9585 20.3029L19.9487 18.687L22.9578 16.9497Z" fill="#C4C6C6"/>
<path d="M43.1245 44.0076L42.7133 43.7686L42.6868 36.1094L43.098 36.3484L43.1245 44.0076Z" fill="#1D1D1B"/>
<path d="M43.098 36.3485L42.6868 36.1095L49.6482 32.0903L50.0594 32.3293L43.098 36.3485Z" fill="#1D1D1B"/>
<path d="M50.0591 32.3296L50.0856 39.9888L43.1242 44.008L43.0977 36.3488L50.0591 32.3296Z" fill="#1D1D1B"/>
<path d="M49.4922 39.3236V40.33L43.7123 43.667V41.7061L43.7037 41.4911V38.5839L43.6951 38.2142V36.6918L49.0191 33.6212L49.0277 33.6126L49.4663 33.3545V34.3007L49.4749 34.6705V36.6229L49.4836 36.9928V38.9537L49.4922 39.3236Z" fill="#ECF0F1"/>
<path d="M49.4918 39.9087V40.1151L43.7119 43.4522V43.2372L49.4918 39.9087Z" fill="#C5C5C5"/>
<path d="M49.4918 39.3237V39.5388L43.7119 42.8759V42.6609L49.4918 39.3237Z" fill="#C5C5C5"/>
<path d="M49.4832 38.7383V38.9533L43.7119 42.282V42.0756L49.4832 38.7383Z" fill="#C5C5C5"/>
<path d="M49.4832 38.1626V38.369L43.712 41.7062L43.7034 41.4912L49.4832 38.1626Z" fill="#C5C5C5"/>
<path d="M49.4832 37.5776V37.784L43.7034 41.1211V40.9061L49.4832 37.5776Z" fill="#C5C5C5"/>
<path d="M49.4832 36.9927V37.2077L43.7034 40.5363V40.3298L49.4832 36.9927Z" fill="#C5C5C5"/>
<path d="M49.4746 36.4077V36.6227L43.7034 39.9599V39.7449L49.4746 36.4077Z" fill="#C5C5C5"/>
<path d="M49.4746 35.8311V36.0461L43.7034 39.3745V39.1595L49.4746 35.8311Z" fill="#C5C5C5"/>
<path d="M49.4746 35.2554V35.4618L43.7034 38.799V38.5839L49.4746 35.2554Z" fill="#C5C5C5"/>
<path d="M49.4749 34.6704V34.8854L43.6951 38.2141V37.9991L49.4749 34.6704Z" fill="#C5C5C5"/>
<path d="M49.4663 34.0854V34.3005L43.6951 37.6291V37.4226L49.4663 34.0854Z" fill="#C5C5C5"/>
<path d="M49.4663 33.5005V33.7155L43.6951 37.0527V36.8377L49.4663 33.5005Z" fill="#C5C5C5"/>
<path d="M26.0911 45.742L8.54067 35.5428L8.52686 30.9541L26.0773 41.1533L26.0911 45.742Z" fill="#009FE3"/>
<path d="M26.0773 41.1535L8.52686 30.9543L12.8271 25.687L30.3775 35.8862L26.0773 41.1535Z" fill="#BEC1C2"/>
<path d="M30.3773 35.8862L30.399 43.255L26.091 45.7423L26.0771 41.1535L30.3773 35.8862Z" fill="#009FE3"/>
<path d="M26.0001 41.2473L8.44967 31.0481L8.41357 30.998L25.964 41.1972L26.0001 41.2473Z" fill="#C5C5C5"/>
<path d="M25.9642 41.1974L8.41377 30.9982L8.37769 30.9482L25.9281 41.1474L25.9642 41.1974Z" fill="#C5C5C5"/>
<path d="M25.9281 41.1475L8.37769 30.9483L12.9082 25.3989L30.4586 35.5981L25.9281 41.1475Z" fill="#ECF0F1"/>
<path d="M30.4585 35.5981L30.5307 35.6981L30.3772 35.8862L26.077 41.1535L26.0002 41.2475L25.9641 41.1975L25.928 41.1476L30.4585 35.5981Z" fill="#C4C6C6"/>
<path d="M52.5581 26.4582L53.1321 26.1284V28.1388L52.5581 27.9121V26.4582Z" fill="#009FE3"/>
<path d="M52.5578 26.458V27.9119L49.9245 29.4334L49.9116 27.9785L52.5578 26.458Z" fill="#E0E2E2"/>
<path d="M41.5277 32.8271V34.281L38.8816 35.8014V34.3476L41.5277 32.8271Z" fill="#E0E2E2"/>
<path d="M49.9248 29.4336L52.558 27.9121L53.132 28.1388L49.9297 29.9892L49.9248 29.4336Z" fill="#009FE3"/>
<path d="M47.0431 29.6421V31.096L44.397 32.6164V31.1625L47.0431 29.6421Z" fill="#E0E2E2"/>
<path d="M47.0427 29.6428L47.6167 29.313V31.3233L47.0427 31.0966V29.6428Z" fill="#009FE3"/>
<path d="M47.0431 31.0967L47.6171 31.3233L44.397 33.1736V32.6171L47.0431 31.0967Z" fill="#009FE3"/>
<path d="M41.5278 32.8273L42.1018 32.4976V34.5078L41.5278 34.2812V32.8273Z" fill="#009FE3"/>
<path d="M41.528 34.2812L42.102 34.5079L38.8818 36.3582V35.8017L41.528 34.2812Z" fill="#009FE3"/>
<path d="M10.656 33.5632L10.082 33.2334V35.2438L10.656 35.017V33.5632Z" fill="#009FE3"/>
<path d="M10.6562 33.563V35.0169L13.2895 36.5384L13.3024 35.0835L10.6562 33.563Z" fill="#E0E2E2"/>
<path d="M21.6863 39.9326V41.3865L24.3324 42.9069V41.453L21.6863 39.9326Z" fill="#E0E2E2"/>
<path d="M13.2895 36.5386L10.6563 35.0171L10.0823 35.2438L13.2846 37.0941L13.2895 36.5386Z" fill="#009FE3"/>
<path d="M16.1714 36.7476V38.2014L18.8175 39.7218V38.268L16.1714 36.7476Z" fill="#E0E2E2"/>
<path d="M16.1714 36.7477L15.5974 36.418V38.4282L16.1714 38.2016V36.7477Z" fill="#009FE3"/>
<path d="M16.1716 38.2017L15.5977 38.4283L18.8178 40.2786V39.7221L16.1716 38.2017Z" fill="#009FE3"/>
<path d="M21.6863 39.9328L21.1123 39.603V41.6133L21.6863 41.3867V39.9328Z" fill="#009FE3"/>
<path d="M21.6863 41.3867L21.1123 41.6133L24.3324 43.4637V42.9071L21.6863 41.3867Z" fill="#009FE3"/>
<path d="M60.5002 36.8394L60.4969 38.0112L33.3237 53.8025L33.3271 52.6307L60.5002 36.8394Z" fill="#1D1D1B"/>
<path d="M33.3268 52.6313L33.3235 53.8031L0.5 34.8525L0.503325 33.6807L33.3268 52.6313Z" fill="#1D1D1B"/>
<path d="M60.4998 36.8398L33.3267 52.6311L0.503174 33.6805L27.6764 17.8892L60.4998 36.8398Z" fill="#121211"/>
<path d="M49.1724 39.2138L47.577 38.2866L44.2 40.2364L44.2103 42.017L45.8057 42.9442L49.1827 40.9945L49.1725 39.2241L49.1724 39.2138Z" fill="#F1C40F"/>
<path d="M47.577 38.2866L44.2 40.2364L44.2103 42.017L45.8057 42.9442L49.1827 40.9945L49.1724 39.2138L47.577 38.2866Z" fill="#ECF0F1"/>
<path d="M44.2002 40.2363L44.2105 42.017L45.8059 42.9442L45.7956 41.1635L44.2002 40.2363Z" fill="#D6B218"/>
<path d="M45.7954 41.1636L45.8057 42.9443L49.1827 40.9946L49.1724 39.2139L45.7954 41.1636Z" fill="#E5BD13"/>
<path d="M48.9656 39.6183L49.0318 39.5801L49.0412 40.7892L48.9744 40.7557L48.9656 39.6183Z" fill="#D6B218"/>
<path d="M48.9746 40.7554L49.0414 40.7889L45.9473 42.5753L45.9468 42.5035L48.9746 40.7554Z" fill="#F1C40F"/>
<path d="M48.9655 39.6182L48.9743 40.7555L45.9465 42.5036L45.9377 41.3662L48.9655 39.6182Z" fill="#C6A51A"/>
<path d="M47.1038 40.8247L47.1088 41.4724L46.1178 42.0445L46.1128 41.3968L47.1038 40.8247Z" fill="#ECF0F1"/>
<path d="M44.4245 40.6476L44.3583 40.6094L44.3489 41.8185L44.4156 41.785L44.4245 40.6476Z" fill="#E5BD13"/>
<path d="M44.4156 41.7847L44.3489 41.8182L45.6478 42.5681L45.6483 42.4963L44.4156 41.7847Z" fill="#F1C40F"/>
<path d="M44.4244 40.6475L44.4155 41.7848L45.6482 42.4965L45.6569 41.3591L44.4244 40.6475Z" fill="#C6A51A"/>
<path d="M44.2 40.2364L45.7954 41.1635L49.1724 39.2138L47.577 38.2866L44.2 40.2364Z" fill="#F1C40F"/>
<path d="M47.5769 38.4507V38.5264L46.4057 39.2028L46.3403 39.1648L47.5769 38.4507Z" fill="#EAAA42"/>
<path d="M48.8896 39.2136L48.8243 39.2513L47.5769 38.5264V38.4507L48.8896 39.2136Z" fill="#D6B218"/>
<path d="M46.4058 39.2028L47.5769 38.5264L48.8243 39.2513L47.6532 39.9277L46.4058 39.2028Z" fill="#E5BD13"/>
<path d="M46.1557 39.2705V39.3462L44.6565 40.2115L44.5911 40.1735L46.1557 39.2705Z" fill="#C6A51A"/>
<path d="M47.4685 40.0334L47.4031 40.0712L46.1558 39.3462V39.2705L47.4685 40.0334Z" fill="#D6B218"/>
<path d="M44.6567 40.2115L46.156 39.3462L47.4034 40.0711L45.9042 40.9364L44.6567 40.2115Z" fill="#E5BD13"/>
<path d="M45.4258 41.7905L45.3733 41.8905L45.4058 41.9093L45.4776 41.9504L45.4258 41.7905Z" fill="#1D1D1B"/>
<path d="M45.4061 41.9097L45.4055 42.1074L45.4448 42.1301L45.4453 41.9323L45.4061 41.9097Z" fill="#1D1D1B"/>
<path d="M45.2111 42.0127L45.2109 42.055L45.482 42.2115L45.4821 42.1692L45.2111 42.0127Z" fill="#1D1D1B"/>
<path d="M44.7155 41.3926L44.7151 41.5335C44.715 41.578 44.7407 41.6297 44.7748 41.6559L44.7744 41.7829C44.7505 41.7718 44.7324 41.7729 44.7324 41.7861L44.8381 41.8472C44.8381 41.8339 44.8202 41.812 44.7962 41.7954L44.7966 41.6684C44.8122 41.6747 44.8257 41.6732 44.8362 41.6665C44.8486 41.6573 44.8567 41.64 44.8568 41.6153L44.8572 41.4744L44.7155 41.3926Z" fill="#1D1D1B"/>
<path d="M45.2491 41.8188L45.2485 42.0166L45.2878 42.0393L45.2884 41.8415L45.2491 41.8188Z" fill="#1D1D1B"/>
<path d="M45.2686 41.6997L45.2163 41.7998L45.2488 41.8186L45.3204 41.8596L45.2686 41.6997Z" fill="#1D1D1B"/>
<path d="M44.9927 41.9851C44.9879 41.9851 44.9827 41.9836 44.9776 41.9807L44.61 41.7685C44.5943 41.7593 44.5815 41.7367 44.5815 41.7182L44.5828 41.295C44.5828 41.2844 44.587 41.2759 44.5942 41.2717C44.6014 41.2676 44.6104 41.2683 44.6193 41.2733L44.9869 41.4856C45.0031 41.4951 45.0163 41.5177 45.016 41.5362L45.0149 41.9594C45.0149 41.9699 45.0106 41.9783 45.0032 41.9823C45.0001 41.9842 44.9965 41.9851 44.9927 41.9851ZM44.6046 41.2845C44.6036 41.2845 44.6027 41.2848 44.6019 41.2851C44.5996 41.2865 44.5983 41.2902 44.5983 41.295L44.597 41.7182C44.597 41.7314 44.6067 41.7486 44.6179 41.755L44.9855 41.9673C44.9897 41.9697 44.9932 41.9699 44.9956 41.9689C44.9979 41.9675 44.9993 41.9641 44.9994 41.9594L45.0006 41.5363C45.0006 41.5233 44.9904 41.5056 44.979 41.499L44.6114 41.2868C44.6089 41.2853 44.6065 41.2845 44.6046 41.2845Z" fill="#1D1D1B"/>
<path d="M45.5398 42.3011C45.535 42.3011 45.5298 42.2997 45.5249 42.2968L45.1573 42.0846C45.1412 42.0753 45.1287 42.0531 45.1287 42.0343L45.1299 41.611C45.1299 41.6005 45.134 41.592 45.1413 41.5878C45.1487 41.5835 45.1575 41.5841 45.1664 41.5893L45.534 41.8017C45.5502 41.8109 45.5634 41.8337 45.5631 41.8523L45.562 42.2755C45.562 42.2857 45.558 42.2941 45.5507 42.2983C45.5474 42.3002 45.5438 42.3011 45.5398 42.3011ZM45.1518 41.6006C45.1508 41.6006 45.1498 41.6009 45.149 41.6012C45.1468 41.6026 45.1454 41.6062 45.1454 41.611L45.1441 42.0343C45.1441 42.0474 45.154 42.0647 45.1651 42.0711L45.5326 42.2833C45.5367 42.2856 45.5405 42.286 45.5429 42.2849C45.5452 42.2835 45.5465 42.2801 45.5465 42.2755L45.5477 41.8523C45.5477 41.8393 45.5375 41.8217 45.5261 41.8151L45.1585 41.6028C45.156 41.6014 45.1537 41.6006 45.1518 41.6006Z" fill="#1D1D1B"/>
<path d="M47.0262 41.4395L47.0263 41.4603L46.2061 41.9338L46.2061 41.913L47.0262 41.4395Z" fill="#C5C5C5"/>
<path d="M47.0257 41.377L47.0258 41.3978L46.2056 41.8713L46.2056 41.8505L47.0257 41.377Z" fill="#C5C5C5"/>
<path d="M47.0257 41.3145L47.0258 41.3353L46.2056 41.8088L46.2056 41.788L47.0257 41.3145Z" fill="#C5C5C5"/>
<path d="M47.0257 41.252L47.0258 41.2728L46.2056 41.7463L46.2056 41.7255L47.0257 41.252Z" fill="#C5C5C5"/>
<path d="M47.025 41.1895L47.0251 41.2103L46.2049 41.6838L46.2048 41.663L47.025 41.1895Z" fill="#C5C5C5"/>
<path d="M47.025 41.127L47.0251 41.1478L46.2049 41.6213L46.2048 41.6005L47.025 41.127Z" fill="#C5C5C5"/>
<path d="M47.025 41.0645L47.0251 41.0853L46.2049 41.5588L46.2048 41.538L47.025 41.0645Z" fill="#C5C5C5"/>
<path d="M47.0245 41.0015L47.0246 41.0223L46.2044 41.4958L46.2043 41.475L47.0245 41.0015Z" fill="#C5C5C5"/>
<path d="M47.0245 40.939L47.0246 40.9598L46.2044 41.4334L46.2043 41.4125L47.0245 40.939Z" fill="#C5C5C5"/>
<path d="M48.9041 40.3599L48.9069 40.7138L48.3653 41.0265L48.3625 40.6725L48.9041 40.3599Z" fill="#ECF0F1"/>
<path d="M48.8611 40.6958L48.8611 40.7072L48.4129 40.966L48.4128 40.9546L48.8611 40.6958Z" fill="#C5C5C5"/>
<path d="M48.8611 40.6616L48.8611 40.673L48.4129 40.9318L48.4128 40.9204L48.8611 40.6616Z" fill="#C5C5C5"/>
<path d="M48.8611 40.6274L48.8611 40.6388L48.4129 40.8977L48.4128 40.8863L48.8611 40.6274Z" fill="#C5C5C5"/>
<path d="M48.8611 40.5933L48.8611 40.6046L48.4129 40.8634L48.4128 40.8521L48.8611 40.5933Z" fill="#C5C5C5"/>
<path d="M48.8611 40.5591L48.8611 40.5705L48.4129 40.8293L48.4128 40.8179L48.8611 40.5591Z" fill="#C5C5C5"/>
<path d="M48.8611 40.5249L48.8611 40.5363L48.4129 40.7951L48.4128 40.7837L48.8611 40.5249Z" fill="#C5C5C5"/>
<path d="M48.8606 40.4902L48.8607 40.5016L48.4124 40.7604L48.4124 40.749L48.8606 40.4902Z" fill="#C5C5C5"/>
<path d="M48.8606 40.4565L48.8606 40.4679L48.4124 40.7268L48.4124 40.7154L48.8606 40.4565Z" fill="#C5C5C5"/>
<path d="M48.8606 40.4224L48.8606 40.4338L48.4124 40.6926L48.4124 40.6812L48.8606 40.4224Z" fill="#C5C5C5"/>
<path d="M36.9303 34.6712L7.56348 17.5732L7.59195 29.9885L36.9588 47.0865L36.9303 34.6712Z" fill="#009FE3"/>
<path d="M55.0541 24.2078L25.6872 7.10986L16.6169 8.07681L45.9838 25.1748L55.0541 24.2078Z" fill="#2F873B"/>
<path d="M56.5753 23.2952L27.2085 6.19727L16.6143 7.03045L45.9811 24.1284L56.5753 23.2952Z" fill="#B9B9B9"/>
<path d="M45.9841 25.1746L16.6172 8.07666L7.56348 17.5736L36.9304 34.6716L45.9841 25.1746Z" fill="#2F873B"/>
<path d="M55.0857 36.6263L50.0857 39.5138L49.4858 39.8638V37.5763L43.6983 40.9014V41.4888L43.7108 41.7013V43.1888L43.1233 43.5263L42.7108 43.7638L36.9607 47.0888L36.9358 34.6763V34.4889L45.8733 25.1139L45.9858 24.9888L54.7858 24.0513H54.7983L55.0483 24.0264V24.2013L55.0857 36.6263Z" fill="#009FE3"/>
<path d="M35.3288 35.2991L5.96191 18.2012L6.28308 18.9151L35.65 36.0131L35.3288 35.2991Z" fill="#B2B2B2"/>
<path d="M45.9811 24.1282L16.6142 7.03027L5.96191 18.2011L35.3288 35.299L45.9811 24.1282Z" fill="#C5C5C5"/>
<path d="M45.9812 24.1286L35.3289 35.2994L35.65 36.0133L45.9841 25.1747L56.3382 24.069L56.5754 23.2954L45.9812 24.1286Z" fill="#A4A4A4"/>
<path d="M36.9504 30.1779L29.9163 26.0901L29.9065 24.4741L36.9406 28.5619L36.9504 30.1779Z" fill="#C5C5C5"/>
<path d="M39.9428 26.8228L36.942 28.5631L29.9053 24.4672L32.921 22.7417L39.9428 26.8228Z" fill="#F8F8F8"/>
<path d="M39.9492 26.8252L39.9527 27.4276L36.95 30.1784L36.9402 28.5625L39.9492 26.8252Z" fill="#C4C6C6"/>
<path d="M19.959 20.3029L12.9248 16.2151L12.915 14.5991L19.9492 18.6869L19.959 20.3029Z" fill="#C5C5C5"/>
<path d="M22.9515 16.9478L19.9508 18.6881L12.9141 14.5922L15.9298 12.8667L22.9515 16.9478Z" fill="#F8F8F8"/>
<path d="M22.9578 16.9497L22.9612 17.5521L19.9585 20.3029L19.9487 18.687L22.9578 16.9497Z" fill="#C4C6C6"/>
<path d="M43.0978 36.3485L42.6865 36.1095L49.6479 32.0903L50.0592 32.3293L43.0978 36.3485Z" fill="#1D1D1B"/>
<path d="M43.1233 44.0833L42.7108 43.7638L42.6858 36.1138L43.0983 36.3513L43.1233 44.0833Z" fill="#1D1D1B"/>
<path d="M49.4859 39.8637V37.5762L43.6984 40.9012V41.4887L43.7109 41.7012V43.7458L43.1234 44.0833L43.0984 36.3512L50.0609 32.3262L50.0859 39.5137L49.4859 39.8637Z" fill="#1D1D1B"/>
<path d="M49.4857 36.9891V37.5766L43.6982 40.9016V36.6891L49.0232 33.6266V33.6141L49.4607 33.3516V34.3016L49.4732 34.6766V36.6266L49.4857 36.9891Z" fill="#ECF0F1"/>
<path d="M49.4825 36.9927V37.2077L43.7026 40.5363V40.3298L49.4825 36.9927Z" fill="#C5C5C5"/>
<path d="M49.4739 36.4077V36.6227L43.7026 39.9599V39.7449L49.4739 36.4077Z" fill="#C5C5C5"/>
<path d="M49.4739 35.8311V36.0461L43.7026 39.3745V39.1595L49.4739 35.8311Z" fill="#C5C5C5"/>
<path d="M49.4739 35.2554V35.4618L43.7026 38.799V38.5839L49.4739 35.2554Z" fill="#C5C5C5"/>
<path d="M49.474 34.6704V34.8854L43.6941 38.2141V37.9991L49.474 34.6704Z" fill="#C5C5C5"/>
<path d="M49.4654 34.0854V34.3005L43.6941 37.6291V37.4226L49.4654 34.0854Z" fill="#C5C5C5"/>
<path d="M49.4656 33.5005V33.7155L43.6943 37.0527V36.8377L49.4656 33.5005Z" fill="#C5C5C5"/>
<path d="M26.0911 45.742L8.54067 35.5428L8.52686 30.9541L26.0773 41.1533L26.0911 45.742Z" fill="#009FE3"/>
<path d="M26.0773 41.1535L8.52686 30.9543L12.8271 25.687L30.3775 35.8862L26.0773 41.1535Z" fill="#BEC1C2"/>
<path d="M30.3773 35.8862L30.399 43.255L26.091 45.7423L26.0771 41.1535L30.3773 35.8862Z" fill="#009FE3"/>
<path d="M26.0001 41.2473L8.44967 31.0481L8.41357 30.998L25.964 41.1972L26.0001 41.2473Z" fill="#C5C5C5"/>
<path d="M25.9642 41.1974L8.41377 30.9982L8.37769 30.9482L25.9281 41.1474L25.9642 41.1974Z" fill="#C5C5C5"/>
<path d="M25.9281 41.1475L8.37769 30.9483L12.9082 25.3989L30.4586 35.5981L25.9281 41.1475Z" fill="#C5C5C5"/>
<path d="M30.4585 35.5981L30.5307 35.6981L30.3772 35.8862L26.077 41.1535L26.0002 41.2475L25.9641 41.1975L25.928 41.1476L30.4585 35.5981Z" fill="#C4C6C6"/>
<path d="M52.5581 26.4582L53.1321 26.1284V28.1388L52.5581 27.9121V26.4582Z" fill="#009FE3"/>
<path d="M52.5578 26.458V27.9119L49.9245 29.4334L49.9116 27.9785L52.5578 26.458Z" fill="#E0E2E2"/>
<path d="M41.5277 32.8271V34.281L38.8816 35.8014V34.3476L41.5277 32.8271Z" fill="#E0E2E2"/>
<path d="M49.9248 29.4336L52.558 27.9121L53.132 28.1388L49.9297 29.9892L49.9248 29.4336Z" fill="#009FE3"/>
<path d="M47.0431 29.6421V31.096L44.397 32.6164V31.1625L47.0431 29.6421Z" fill="#E0E2E2"/>
<path d="M47.0427 29.6428L47.6167 29.313V31.3233L47.0427 31.0966V29.6428Z" fill="#009FE3"/>
<path d="M47.0431 31.0967L47.6171 31.3233L44.397 33.1736V32.6171L47.0431 31.0967Z" fill="#009FE3"/>
<path d="M41.5278 32.8273L42.1018 32.4976V34.5078L41.5278 34.2812V32.8273Z" fill="#009FE3"/>
<path d="M41.528 34.2812L42.102 34.5079L38.8818 36.3582V35.8017L41.528 34.2812Z" fill="#009FE3"/>
<path d="M10.656 33.5632L10.082 33.2334V35.2438L10.656 35.017V33.5632Z" fill="#009FE3"/>
<path d="M10.6562 33.563V35.0169L13.2895 36.5384L13.3024 35.0835L10.6562 33.563Z" fill="#C5C5C5"/>
<path d="M21.6863 39.9326V41.3865L24.3324 42.9069V41.453L21.6863 39.9326Z" fill="#C5C5C5"/>
<path d="M13.2895 36.5386L10.6563 35.0171L10.0823 35.2438L13.2846 37.0941L13.2895 36.5386Z" fill="#009FE3"/>
<path d="M16.1714 36.7476V38.2014L18.8175 39.7218V38.268L16.1714 36.7476Z" fill="#C5C5C5"/>
<path d="M16.1714 36.7477L15.5974 36.418V38.4282L16.1714 38.2016V36.7477Z" fill="#009FE3"/>
<path d="M16.1716 38.2017L15.5977 38.4283L18.8178 40.2786V39.7221L16.1716 38.2017Z" fill="#009FE3"/>
<path d="M21.6863 39.9328L21.1123 39.603V41.6133L21.6863 41.3867V39.9328Z" fill="#009FE3"/>
<path d="M21.6863 41.3867L21.1123 41.6133L24.3324 43.4637V42.9071L21.6863 41.3867Z" fill="#009FE3"/>
</svg>
