<svg width="109" height="20" viewBox="0 0 109 20" fill="none" xmlns="http://www.w3.org/2000/svg">
<path d="M50.2817 6.83333C50.2817 3.16667 47.8952 0.388889 42.9557 0.388889H33.0212V19.5556H37.6832V4.55556H42.9557C44.8982 4.55556 45.6197 5.66667 45.6197 6.94444C45.6197 8.27778 44.8982 9.33333 42.9557 9.33333H38.4602L44.8982 19.5556H50.2262C50.2262 19.5556 45.8417 12.6667 45.8972 12.6667C48.5612 12.0556 50.2817 10.1667 50.2817 6.83333ZM25.2512 0.388889H29.9132V19.5556H25.2512V0.388889ZM10.3217 0.388889L0.553711 19.6111H5.82621L7.38021 16.3889H15.2612L13.3187 12.3333H9.37821L12.2642 6.44445H12.3197L18.8687 19.6111H24.2522L14.4842 0.388889H10.3217ZM67.3202 9.61111C68.8187 8.77778 69.5957 7.5 69.5957 5.55556C69.5957 2.44444 67.2647 0.388889 63.4352 0.388889H52.5017V19.5556H63.8237C67.7642 19.5556 70.3727 17.4444 70.3727 14.1667C70.4282 11.9444 69.1517 10.2778 67.3202 9.61111ZM57.1637 4.44444H63.3797C64.3232 4.44444 65.0447 5.16667 65.0447 6.11111C65.0447 7.05556 64.3232 7.77778 63.3797 7.77778H57.1637V4.44444ZM63.5462 15.5556H57.1637V11.6667H63.5462C64.6562 11.6667 65.5442 12.5 65.5442 13.6111C65.5442 14.7222 64.6562 15.5556 63.5462 15.5556ZM85.1357 11.1111C85.1357 14 83.8037 15.6111 81.1397 15.6111C78.5312 15.6111 77.1992 14 77.1992 11.1111V0.388889H72.4262V10.7778C72.4262 16.7222 75.5342 20 81.1952 20C86.8562 20 89.9642 16.7222 89.9642 10.7778V0.388889H85.1912V11.1111H85.1357ZM102.396 8.05556C97.9562 7 97.0127 6.88889 97.0127 5.61111C97.0127 4.61111 98.1227 4.16667 100.01 4.16667C102.507 4.16667 105.116 4.77778 106.614 5.72222L108.113 1.83333C106.115 0.722222 103.34 0 100.01 0C95.0702 0 92.2952 2.44444 92.2952 5.77778C92.2952 9.33333 94.3487 10.7778 99.1217 11.7778C102.84 12.6111 103.617 13.1111 103.617 14.1667C103.617 15.2778 102.618 15.7778 100.565 15.7778C97.6232 15.7778 95.0147 15.0556 92.9057 13.8889L91.4627 18C93.7937 19.2222 97.2347 20 100.676 20C105.504 20 108.39 17.7778 108.39 14C108.446 10.9444 106.503 9 102.396 8.05556Z" fill="#071A3D"/>
</svg>
