<svg width="60" height="60" viewBox="0 0 60 60" fill="none" xmlns="http://www.w3.org/2000/svg">
<g clip-path="url(#clip0_222_793)">
<path d="M24.7058 32.9409C26.3302 32.9409 27.647 31.6241 27.647 29.9998C27.647 28.3754 26.3302 27.0586 24.7058 27.0586C23.0815 27.0586 21.7646 28.3754 21.7646 29.9998C21.7646 31.6241 23.0815 32.9409 24.7058 32.9409Z" fill="black"/>
<path d="M26.4707 23.7757C27.0295 23.9344 27.5583 24.1649 28.0449 24.4593L34.1178 18.3864V17.2544C31.8788 15.6009 29.2329 14.5661 26.4707 14.2554V23.7757Z" fill="black"/>
<path d="M19.1655 33.3389C18.8712 32.8523 18.6407 32.3235 18.482 31.7646H8.96094C9.30847 34.8857 10.5654 37.7361 12.4612 40.0432L19.1655 33.3389Z" fill="black"/>
<path d="M34.1178 42.2014L27.6668 35.7505C27.2882 35.9463 26.8881 36.1054 26.4707 36.2239V45.7479C29.2487 45.4448 31.8556 44.4246 34.1178 42.7474V42.2014Z" fill="black"/>
<path d="M22.9411 36.2239C22.5239 36.1054 22.1237 35.9461 21.745 35.7505L14.9895 42.506C17.2367 44.2559 19.9657 45.4138 22.941 45.7451V36.2239H22.9411Z" fill="black"/>
<path d="M34.1176 46.9323C31.2555 48.5202 28.0076 49.3731 24.7059 49.3731C14.0234 49.3731 5.33259 40.6823 5.33259 29.9998C5.33259 19.3174 14.0234 10.6265 24.7059 10.6265C28.012 10.6265 31.2562 11.4795 34.1176 13.0678C34.1176 13.0678 34.1293 7.40183 34.1461 7.16912C31.1689 5.9403 27.9458 5.29395 24.7059 5.29395C11.0831 5.29395 0 16.377 0 29.9998C0 43.6227 11.0831 54.7057 24.7059 54.7057C27.9458 54.7057 31.1689 54.0594 34.1461 52.8305C34.1293 52.5978 34.1176 46.9323 34.1176 46.9323Z" fill="black"/>
<path d="M18.482 28.2353C18.6005 27.818 18.7598 27.4179 18.9554 27.0392L12.1999 20.2837C10.4501 22.531 9.29223 25.26 8.96094 28.2353H18.482Z" fill="black"/>
<path d="M34.1176 31.7646H30.9299C30.7712 32.3235 30.5407 32.8523 30.2463 33.3389L34.1176 37.2102V31.7646Z" fill="black"/>
<path d="M30.9298 28.2352H34.1176V23.3779L30.4563 27.0392C30.6521 27.4178 30.8112 27.8179 30.9298 28.2352Z" fill="black"/>
<path d="M47.0587 41.543L37.647 35.1035V42.8269L47.0587 49.2667V41.543Z" fill="#C5C5C5"/>
<path d="M47.0587 29.3576L37.647 22.918V30.8267L47.0587 37.2663V29.3576Z" fill="#C5C5C5"/>
<path d="M50.5884 25.0817L60.0001 18.6421V10.9629L50.5884 17.4025V25.0817Z" fill="#C5C5C5"/>
<path d="M50.5884 37.2667L60.0001 30.827V22.9185L50.5884 29.358V37.2667Z" fill="#C5C5C5"/>
<path d="M53.8918 1.76465H50.5884V13.1258L59.8961 6.75724C59.3701 3.9203 56.8787 1.76465 53.8918 1.76465Z" fill="#C5C5C5"/>
<path d="M47.0587 25.0817V17.4025L37.647 10.9629V18.6422L47.0587 25.0817Z" fill="#C5C5C5"/>
<path d="M60.0001 47.1035L50.5884 53.5432V58.2353H53.8918C57.2599 58.2353 60.0001 55.495 60.0001 52.1269V47.1035Z" fill="#C5C5C5"/>
<path d="M47.0587 13.1258V1.76465H43.7553C40.7684 1.76465 38.277 3.9203 37.751 6.75724L47.0587 13.1258Z" fill="#C5C5C5"/>
<path d="M50.5884 49.2668L60.0001 42.827V35.1035L50.5884 41.5432V49.2668Z" fill="#C5C5C5"/>
<path d="M43.7553 58.2353H47.0587V53.5432L37.647 47.1035V52.1269C37.647 55.495 40.3872 58.2353 43.7553 58.2353Z" fill="#C5C5C5"/>
<path d="M21.367 24.4596C21.8535 24.1652 22.3824 23.9348 22.9412 23.7761V14.2549C19.8201 14.6024 16.9698 15.8594 14.6626 17.7551L21.367 24.4596Z" fill="black"/>
</g>
<defs>
<clipPath id="clip0_222_793">
<rect width="60" height="60" fill="white"/>
</clipPath>
</defs>
</svg>
