<svg width="89" height="32" viewBox="0 0 89 32" fill="none" xmlns="http://www.w3.org/2000/svg">
<path d="M6.15041 29.977L4.55757 24.114H4.53775L2.92564 29.977H1.95821L0.169922 23H1.11754L2.48563 28.8043H2.50517L4.06897 23H5.07548L6.61947 28.8043H6.63929L8.05623 23H8.98457L7.11812 29.977H6.15041Z" fill="black"/>
<path d="M12.7464 29.6551C12.3688 29.9414 11.8927 30.085 11.32 30.085C10.9158 30.085 10.5656 30.0199 10.2695 29.8893C9.97303 29.7598 9.72385 29.5766 9.52189 29.3426C9.31994 29.1078 9.1682 28.8277 9.0675 28.5017C8.96652 28.1757 8.90951 27.8212 8.89648 27.4365C8.89648 27.0519 8.95511 26.7004 9.07265 26.3814C9.18964 26.0619 9.35414 25.7853 9.56587 25.5505C9.77733 25.3163 10.0284 25.1338 10.3183 25.0033C10.608 24.8738 10.9255 24.8081 11.2711 24.8081C11.7209 24.8081 12.0936 24.9012 12.3903 25.0872C12.6867 25.2726 12.9242 25.509 13.1036 25.7954C13.2825 26.0817 13.4063 26.3944 13.475 26.7332C13.5434 27.072 13.571 27.395 13.558 27.7006H9.77624C9.76972 27.9227 9.79605 28.1325 9.85441 28.3312C9.91305 28.5299 10.0072 28.7061 10.1381 28.8589C10.2678 29.0117 10.4345 29.1339 10.6365 29.2256C10.8384 29.3163 11.0762 29.3622 11.3498 29.3622C11.7016 29.3622 11.9899 29.2807 12.2146 29.1176C12.4394 28.955 12.5876 28.7074 12.6593 28.3749H13.4804C13.3688 28.9414 13.1245 29.3679 12.7464 29.6551ZM12.5466 26.4102C12.4717 26.2348 12.3704 26.0831 12.2437 25.9558C12.1166 25.829 11.9665 25.728 11.7942 25.6531C11.6215 25.5782 11.431 25.541 11.2225 25.541C11.0075 25.541 10.8137 25.5782 10.6411 25.6531C10.4684 25.728 10.3199 25.8304 10.1964 25.9604C10.0727 26.0912 9.97466 26.2427 9.90327 26.4148C9.83161 26.588 9.78899 26.7715 9.77597 26.9675H12.6785C12.6652 26.7717 12.6213 26.5864 12.5466 26.4102Z" fill="black"/>
<path d="M20.1535 25.8041C19.9451 25.628 19.6649 25.5403 19.3131 25.5403C19.0135 25.5403 18.7629 25.5962 18.561 25.7064C18.359 25.8169 18.1978 25.9632 18.0772 26.1456C17.9567 26.328 17.8704 26.5384 17.818 26.7762C17.7659 27.014 17.7398 27.2602 17.7398 27.5137C17.7398 27.7485 17.7678 27.9763 17.8229 28.1983C17.8783 28.4198 17.9646 28.6166 18.0821 28.7892C18.1991 28.9619 18.3522 29.1001 18.5411 29.2048C18.7303 29.3093 18.9548 29.3612 19.2154 29.3612C19.6258 29.3612 19.9467 29.2537 20.178 29.0387C20.4092 28.8237 20.5509 28.5211 20.603 28.1299H21.4532C21.362 28.755 21.1294 29.2374 20.7548 29.5762C20.3799 29.9149 19.8704 30.0846 19.2255 30.0846C18.8411 30.0846 18.5007 30.0219 18.2043 29.8986C17.9079 29.7749 17.6603 29.5987 17.4616 29.371C17.2629 29.1432 17.1131 28.8712 17.0121 28.5553C16.9106 28.239 16.8604 27.8921 16.8604 27.514C16.8604 27.1364 16.9092 26.783 17.0072 26.454C17.1049 26.125 17.2531 25.8381 17.4518 25.5941C17.6505 25.35 17.8997 25.1581 18.1994 25.0175C18.4993 24.8774 18.8476 24.8071 19.245 24.8071C19.5316 24.8071 19.8004 24.8413 20.0512 24.91C20.302 24.9779 20.5232 25.0843 20.7157 25.2279C20.9076 25.3709 21.0659 25.5514 21.1896 25.7699C21.3134 25.9879 21.3916 26.2469 21.4242 26.5468H20.5645C20.4985 26.2271 20.362 25.9795 20.1535 25.8041Z" fill="black"/>
<path d="M23.1343 24.9251V25.9902H23.1538C23.3558 25.5801 23.6034 25.2771 23.8965 25.0814C24.1897 24.8863 24.561 24.7951 25.0105 24.8078V25.6876C24.6786 25.6876 24.3949 25.7329 24.1604 25.8241C23.9258 25.9153 23.7366 26.0489 23.5936 26.225C23.4505 26.4012 23.3458 26.6143 23.2809 26.8648C23.2157 27.1159 23.1832 27.4042 23.1832 27.7294V29.977H22.3525V24.9251H23.1343Z" fill="black"/>
<path d="M29.0374 29.6551C28.6593 29.9414 28.1834 30.085 27.6107 30.085C27.2068 30.085 26.8566 30.0199 26.5602 29.8893C26.2638 29.7598 26.0146 29.5766 25.8126 29.3426C25.6107 29.1078 25.4592 28.8277 25.3582 28.5017C25.2575 28.1757 25.2005 27.8212 25.1875 27.4365C25.1875 27.0519 25.2461 26.7004 25.3634 26.3814C25.4807 26.0619 25.6452 25.7853 25.8569 25.5505C26.0681 25.3163 26.3194 25.1338 26.6093 25.0033C26.8987 24.8738 27.2166 24.8081 27.5621 24.8081C28.0116 24.8081 28.3846 24.9012 28.681 25.0872C28.9774 25.2726 29.2152 25.509 29.3944 25.7954C29.5735 26.0817 29.6973 26.3944 29.7657 26.7332C29.8344 27.072 29.8618 27.395 29.8488 27.7006H26.0673C26.0605 27.9227 26.0868 28.1325 26.1454 28.3312C26.2041 28.5299 26.2983 28.7061 26.4288 28.8589C26.5591 29.0117 26.7255 29.1339 26.9275 29.2256C27.1294 29.3163 27.3669 29.3622 27.6408 29.3622C27.9926 29.3622 28.2809 29.2807 28.5056 29.1176C28.7301 28.955 28.8783 28.7074 28.9503 28.3749H29.7711C29.659 28.9414 29.4147 29.3679 29.0374 29.6551ZM28.8368 26.4102C28.7619 26.2348 28.6609 26.0831 28.5341 25.9558C28.4068 25.829 28.257 25.728 28.0844 25.6531C27.9117 25.5782 27.7212 25.541 27.513 25.541C27.298 25.541 27.1042 25.5782 26.9313 25.6531C26.7586 25.728 26.6101 25.8304 26.4866 25.9604C26.3629 26.0912 26.2651 26.2427 26.1935 26.4148C26.1218 26.588 26.0795 26.7715 26.0664 26.9675H28.9687C28.9554 26.7717 28.9115 26.5864 28.8368 26.4102Z" fill="black"/>
<path d="M35.1838 29.957C35.0402 30.0412 34.8418 30.0843 34.5877 30.0843C34.3727 30.0843 34.202 30.0238 34.0747 29.903C33.9476 29.7827 33.8841 29.5857 33.8841 29.3121C33.6564 29.5857 33.3909 29.7827 33.0877 29.903C32.785 30.0238 32.4574 30.0843 32.1056 30.0843C31.8776 30.0843 31.661 30.0577 31.4557 30.0059C31.2505 29.9543 31.073 29.8723 30.9232 29.7613C30.7731 29.6508 30.6544 29.5061 30.5665 29.3267C30.4788 29.1478 30.4346 28.9309 30.4346 28.6771C30.4346 28.3902 30.4837 28.156 30.5812 27.9735C30.6789 27.7911 30.8073 27.6429 30.9671 27.5289C31.1268 27.4149 31.3092 27.3283 31.5141 27.2697C31.7193 27.2116 31.9292 27.1622 32.1444 27.1234C32.3724 27.078 32.5893 27.0438 32.7942 27.021C32.9995 26.9977 33.1802 26.9651 33.3366 26.9228C33.4929 26.8804 33.6167 26.8188 33.7079 26.7374C33.7991 26.6559 33.8447 26.5368 33.8447 26.3807C33.8447 26.1983 33.8105 26.0517 33.7421 25.941C33.6735 25.8299 33.5858 25.7458 33.4783 25.6872C33.3708 25.6285 33.2503 25.5894 33.1165 25.5699C32.9829 25.5501 32.8507 25.5408 32.7207 25.5408C32.3689 25.5408 32.0757 25.6076 31.8412 25.7406C31.6067 25.8742 31.4794 26.1264 31.4601 26.4982H30.6295C30.6425 26.1855 30.7076 25.9217 30.8249 25.7067C30.9419 25.4917 31.0985 25.3174 31.294 25.1836C31.4894 25.0501 31.7125 24.9534 31.9634 24.8953C32.2142 24.8367 32.4829 24.8071 32.7695 24.8071C32.9976 24.8071 33.2239 24.8234 33.4487 24.856C33.6732 24.8886 33.877 24.9553 34.0595 25.0558C34.2419 25.1568 34.3885 25.2987 34.4989 25.48C34.61 25.6625 34.6651 25.8997 34.6651 26.1918V28.7857C34.6651 28.9809 34.6764 29.1239 34.6992 29.2151C34.7218 29.3058 34.7986 29.3511 34.9289 29.3511C35.0006 29.3511 35.0853 29.3384 35.1832 29.3123V29.957H35.1838ZM33.835 27.3671C33.7307 27.445 33.5942 27.502 33.4248 27.5373C33.2552 27.5734 33.0779 27.6025 32.8922 27.625C32.7063 27.6475 32.519 27.6739 32.3303 27.7029C32.1412 27.732 31.9718 27.7789 31.8222 27.8435C31.6721 27.9087 31.5499 28.0004 31.4555 28.1207C31.361 28.2409 31.3141 28.4049 31.3141 28.6117C31.3141 28.7477 31.3417 28.8628 31.3968 28.957C31.4522 29.0512 31.5242 29.1272 31.6118 29.1858C31.6998 29.2439 31.8024 29.2857 31.9199 29.3118C32.0372 29.3378 32.161 29.3506 32.2913 29.3506C32.5649 29.3506 32.7994 29.3134 32.9948 29.239C33.19 29.1641 33.3499 29.0699 33.4737 28.9567C33.5975 28.8427 33.6887 28.7198 33.7473 28.5873C33.8057 28.4543 33.835 28.3294 33.835 28.213V27.3671Z" fill="black"/>
<path d="M38.1136 24.9241V25.6575H37.1071V28.7941C37.1071 28.8918 37.1153 28.9694 37.1316 29.0283C37.1478 29.0872 37.1785 29.1323 37.2241 29.1654C37.2697 29.198 37.3332 29.2189 37.4147 29.2287C37.4964 29.2384 37.6017 29.2433 37.7323 29.2433H38.1134V29.976H37.4782C37.2632 29.976 37.0789 29.9621 36.9261 29.9323C36.773 29.9027 36.6489 29.8492 36.5545 29.7713C36.46 29.6928 36.39 29.5818 36.3444 29.439C36.2988 29.2954 36.276 29.1068 36.276 28.872V25.6575H35.416V24.9241H36.276V23.4097H37.1066V24.9241H38.1136Z" fill="black"/>
<path d="M42.6097 29.6551C42.2316 29.9414 41.756 30.085 41.183 30.085C40.779 30.085 40.4289 30.0199 40.1327 29.8893C39.8361 29.7598 39.5871 29.5766 39.3852 29.3426C39.1832 29.1078 39.0315 28.8277 38.9308 28.5017C38.8298 28.1757 38.7728 27.8212 38.7598 27.4365C38.7598 27.0519 38.8184 26.7004 38.9357 26.3814C39.0529 26.0619 39.2174 25.7853 39.4292 25.5505C39.6406 25.3163 39.8917 25.1338 40.1816 25.0033C40.4712 24.8738 40.7888 24.8081 41.1344 24.8081C41.5839 24.8081 41.9568 24.9012 42.2533 25.0872C42.55 25.2726 42.7877 25.509 42.9672 25.7954C43.1458 26.0817 43.2696 26.3944 43.3382 26.7332C43.4066 27.072 43.4343 27.395 43.4216 27.7006H39.6395C39.6333 27.9227 39.6591 28.1325 39.7177 28.3312C39.7763 28.5299 39.8705 28.7061 40.0014 28.8589C40.1311 29.0117 40.2978 29.1339 40.4997 29.2256C40.7017 29.3163 40.9392 29.3622 41.2131 29.3622C41.5649 29.3622 41.8532 29.2807 42.0779 29.1176C42.3024 28.955 42.4509 28.7074 42.5225 28.3749H43.3434C43.2313 28.9414 42.9875 29.3679 42.6097 29.6551ZM42.4091 26.4102C42.3347 26.2348 42.2337 26.0831 42.1067 25.9558C41.9794 25.829 41.8295 25.728 41.6572 25.6531C41.4843 25.5782 41.2937 25.541 41.0855 25.541C40.8705 25.541 40.6767 25.5782 40.5041 25.6531C40.3314 25.728 40.1827 25.8304 40.0592 25.9604C39.9354 26.0912 39.8377 26.2427 39.766 26.4148C39.6946 26.588 39.652 26.7715 39.639 26.9675H42.5415C42.528 26.7717 42.4837 26.5864 42.4094 26.4102H42.4091Z" fill="black"/>
<path d="M50.0161 25.8041C49.8076 25.628 49.5275 25.5403 49.176 25.5403C48.876 25.5403 48.6252 25.5962 48.4235 25.7064C48.2218 25.8169 48.0603 25.9632 47.9395 26.1456C47.8198 26.328 47.7327 26.5384 47.6809 26.7762C47.629 27.014 47.6024 27.2602 47.6024 27.5137C47.6024 27.7485 47.6304 27.9763 47.686 28.1983C47.7406 28.4198 47.8272 28.6166 47.9447 28.7892C48.0628 28.9619 48.2148 29.1001 48.4043 29.2048C48.5926 29.3093 48.8174 29.3612 49.0783 29.3612C49.4884 29.3612 49.8093 29.2537 50.0405 29.0387C50.2718 28.8237 50.4135 28.5211 50.4659 28.1299H51.3155C51.2249 28.755 50.992 29.2374 50.6171 29.5762C50.2428 29.9149 49.7327 30.0846 49.0878 30.0846C48.7037 30.0846 48.3633 30.0219 48.0669 29.8986C47.7704 29.7754 47.5229 29.5987 47.3242 29.371C47.1255 29.1432 46.9756 28.8712 46.8749 28.5553C46.774 28.239 46.7227 27.8921 46.7227 27.514C46.7227 27.1364 46.7721 26.783 46.8698 26.454C46.9667 26.125 47.1157 25.8381 47.3144 25.5941C47.5131 25.35 47.7623 25.1581 48.0622 25.0175C48.3614 24.8774 48.7102 24.8071 49.1076 24.8071C49.3945 24.8071 49.6632 24.8413 49.914 24.91C50.1651 24.9779 50.3858 25.0843 50.5788 25.2279C50.7705 25.3709 50.9287 25.5514 51.0525 25.7699C51.1763 25.9879 51.2542 26.2469 51.2867 26.5468H50.4268C50.3611 26.2271 50.224 25.9795 50.0161 25.8041Z" fill="black"/>
<path d="M53.076 23V25.6678H53.0958C53.161 25.5114 53.2516 25.3795 53.3689 25.272C53.4862 25.1645 53.6181 25.0768 53.7652 25.0082C53.9115 24.9403 54.0652 24.889 54.2242 24.8564C54.3833 24.8239 54.538 24.8076 54.6884 24.8076C55.0201 24.8076 55.2972 24.8534 55.5187 24.9446C55.7402 25.0353 55.9197 25.1632 56.0562 25.3258C56.1927 25.4883 56.2891 25.6824 56.3445 25.9069C56.3996 26.1317 56.4276 26.3811 56.4276 26.6548V29.9767H55.5967V26.5565C55.5967 26.2438 55.5055 25.997 55.3236 25.8138C55.1412 25.6314 54.8901 25.5407 54.5711 25.5407C54.3165 25.5407 54.0969 25.5796 53.911 25.658C53.7256 25.7359 53.5711 25.8464 53.4474 25.9897C53.3236 26.1333 53.2305 26.3005 53.1691 26.493C53.1064 26.6854 53.076 26.8955 53.076 27.1235V29.9767H52.2451V23H53.076Z" fill="black"/>
<path d="M61.2542 29.6551C60.8766 29.9414 60.4005 30.085 59.8278 30.085C59.4238 30.085 59.0729 30.0199 58.7767 29.8893C58.4803 29.7598 58.2317 29.5766 58.0294 29.3426C57.8272 29.1078 57.676 28.8277 57.575 28.5017C57.4741 28.1757 57.4171 27.8212 57.4043 27.4365C57.4043 27.0519 57.4624 26.7004 57.5796 26.3814C57.6969 26.0619 57.862 25.7853 58.0737 25.5505C58.2846 25.3163 58.5362 25.1338 58.8256 25.0033C59.115 24.8738 59.4328 24.8081 59.7786 24.8081C60.2284 24.8081 60.6014 24.9012 60.8978 25.0872C61.1942 25.2726 61.4317 25.509 61.6109 25.7954C61.7898 26.0817 61.9135 26.3944 61.9822 26.7332C62.0509 27.072 62.0786 27.395 62.0653 27.7006H58.2838C58.2773 27.9227 58.3031 28.1325 58.3622 28.3312C58.4203 28.5299 58.5145 28.7061 58.6451 28.8589C58.7754 29.0117 58.9415 29.1339 59.1432 29.2256C59.3454 29.3163 59.5837 29.3622 59.8568 29.3622C60.2089 29.3622 60.4971 29.2807 60.7214 29.1176C60.9469 28.955 61.0943 28.7074 61.1665 28.3749H61.9871C61.8761 28.9414 61.6321 29.3679 61.2542 29.6551ZM61.0539 26.4102C60.979 26.2348 60.8777 26.0831 60.7512 25.9558C60.6239 25.829 60.4735 25.728 60.3014 25.6531C60.1288 25.5782 59.9382 25.541 59.7298 25.541C59.5148 25.541 59.3207 25.5782 59.1486 25.6531C58.9754 25.728 58.8272 25.8304 58.7034 25.9604C58.5802 26.0912 58.4827 26.2427 58.4105 26.4148C58.3386 26.588 58.2965 26.7715 58.2838 26.9675H61.1858C61.1728 26.7717 61.1288 26.5864 61.0539 26.4102Z" fill="black"/>
<path d="M63.7067 24.9244V25.6671H63.7259C64.1035 25.094 64.648 24.8071 65.3581 24.8071C65.6708 24.8071 65.9537 24.8723 66.2083 25.0023C66.4629 25.1331 66.6418 25.3544 66.7452 25.6671C66.9149 25.3935 67.138 25.182 67.4152 25.0319C67.6923 24.882 67.9969 24.8071 68.3286 24.8071C68.5824 24.8071 68.8126 24.8351 69.0178 24.8902C69.223 24.9453 69.3983 25.0319 69.5449 25.1494C69.692 25.2661 69.8058 25.4184 69.8878 25.6038C69.9692 25.7892 70.0096 26.0124 70.0096 26.2732V29.9763H69.1787V26.6641C69.1787 26.5072 69.1654 26.3609 69.1391 26.2243C69.1136 26.0878 69.0647 25.9686 68.9928 25.8677C68.9206 25.7667 68.8221 25.6869 68.6947 25.6283C68.5674 25.5696 68.4035 25.5406 68.2013 25.5406C67.7911 25.5406 67.4678 25.6578 67.2344 25.8921C66.9996 26.1264 66.8823 26.4393 66.8823 26.8305V29.9766H66.0514V26.6644C66.0514 26.501 66.037 26.3517 66.0077 26.2146C65.9781 26.0775 65.9276 25.9589 65.856 25.8579C65.7838 25.7569 65.688 25.679 65.5677 25.6231C65.4469 25.568 65.2922 25.5406 65.1035 25.5406C64.8625 25.5406 64.6556 25.5894 64.483 25.6869C64.3104 25.7846 64.1703 25.9019 64.0628 26.0384C63.9553 26.1749 63.8769 26.3166 63.828 26.4638C63.7792 26.6101 63.7547 26.7322 63.7547 26.8305V29.9766H62.9238V24.9247H63.7067V24.9244Z" fill="black"/>
<path d="M71.3086 24.0163V23H72.1395V24.0163H71.3086ZM72.1395 24.9251V29.977H71.3086V24.9251H72.1395Z" fill="black"/>
<path d="M74.0645 28.8482C74.1424 28.9749 74.2453 29.0759 74.3718 29.1508C74.4996 29.2257 74.6427 29.2792 74.8017 29.3118C74.9616 29.3449 75.1258 29.3606 75.2958 29.3606C75.4258 29.3606 75.5631 29.3514 75.7059 29.3316C75.849 29.3118 75.9814 29.2765 76.1022 29.2241C76.2219 29.1725 76.3218 29.0957 76.3997 28.9945C76.4782 28.8935 76.517 28.7648 76.517 28.6087C76.517 28.3937 76.4356 28.2312 76.273 28.1201C76.1104 28.0091 75.9063 27.9195 75.6617 27.8511C75.4177 27.7825 75.1527 27.7208 74.8655 27.6657C74.5786 27.6106 74.3134 27.5322 74.0694 27.4309C73.8243 27.3305 73.6207 27.1885 73.4581 27.0061C73.2955 26.8237 73.2141 26.5691 73.2141 26.2436C73.2141 25.989 73.2711 25.7713 73.3848 25.5886C73.4988 25.4068 73.6451 25.258 73.8245 25.144C74.004 25.03 74.2056 24.9453 74.4307 24.8902C74.6549 24.8351 74.878 24.8071 75.1001 24.8071C75.3864 24.8071 75.6503 24.8316 75.8916 24.8804C76.1321 24.9293 76.346 25.014 76.5319 25.1342C76.7173 25.2545 76.8655 25.4179 76.9758 25.6228C77.0862 25.828 77.1519 26.0837 77.1715 26.3899H76.3411C76.3273 26.2273 76.2855 26.0919 76.2138 25.9844C76.1416 25.8769 76.0504 25.7908 75.9402 25.7252C75.8292 25.6606 75.7067 25.6131 75.5735 25.584C75.4399 25.5544 75.3045 25.5398 75.1679 25.5398C75.0441 25.5398 74.9187 25.5495 74.792 25.5694C74.6641 25.5886 74.549 25.6228 74.4445 25.6717C74.3406 25.7205 74.2561 25.7857 74.1899 25.8669C74.1248 25.9488 74.0927 26.0544 74.0927 26.1847C74.0927 26.3283 74.1432 26.4467 74.2445 26.5414C74.3457 26.6361 74.4746 26.714 74.6302 26.7757C74.7871 26.8384 74.9624 26.8897 75.1579 26.9326C75.3536 26.9744 75.5485 27.0186 75.7442 27.0639C75.9529 27.1098 76.1562 27.1657 76.3549 27.2301C76.5536 27.2952 76.7298 27.3818 76.8826 27.4893C77.036 27.5968 77.1592 27.7322 77.2545 27.8948C77.3487 28.0574 77.3951 28.2597 77.3951 28.5004C77.3951 28.8072 77.3324 29.0612 77.2051 29.2629C77.0778 29.4651 76.9117 29.6277 76.7065 29.7515C76.5013 29.8758 76.27 29.9619 76.0127 30.0108C75.7553 30.0596 75.4996 30.084 75.2456 30.084C74.9654 30.084 74.6983 30.0545 74.4442 29.9964C74.1896 29.9377 73.9654 29.8419 73.7702 29.7081C73.5745 29.5745 73.4182 29.3989 73.3007 29.1804C73.1834 28.9619 73.1182 28.6964 73.1055 28.3837H73.9364C73.9437 28.5664 73.986 28.7217 74.0645 28.8482Z" fill="black"/>
<path d="M80.4758 24.9241V25.6575H79.4693V28.7941C79.4693 28.8918 79.4775 28.9694 79.4943 29.0283C79.51 29.087 79.5413 29.1323 79.5871 29.1654C79.633 29.198 79.6957 29.2189 79.7771 29.2287C79.8591 29.2384 79.9642 29.2433 80.095 29.2433H80.4756V29.976H79.8409C79.6259 29.976 79.4411 29.9621 79.2888 29.9323C79.1354 29.9027 79.0117 29.8492 78.9169 29.7713C78.8227 29.6928 78.753 29.5818 78.7071 29.439C78.6612 29.2954 78.6392 29.1068 78.6392 28.872V25.6575H77.7793V24.9241H78.6392V23.4097H79.4696V24.9241H80.4758Z" fill="black"/>
<path d="M82.1463 24.9251V25.9902H82.1661C82.3672 25.5801 82.6153 25.2771 82.9082 25.0814C83.2017 24.8863 83.5736 24.7951 84.0222 24.8078V25.6876C83.69 25.6876 83.4069 25.7329 83.1726 25.8241C82.9378 25.9153 82.7484 26.0489 82.6056 26.225C82.462 26.4012 82.358 26.6143 82.2929 26.8648C82.2277 27.1159 82.1951 27.4042 82.1951 27.7294V29.977H81.3643V24.9251H82.1463Z" fill="black"/>
<path d="M86.6318 30.6508C86.5341 30.8984 86.4377 31.1068 86.3435 31.2759C86.2488 31.4456 86.1448 31.584 86.0308 31.6915C85.9163 31.799 85.789 31.8775 85.6497 31.9263C85.5091 31.9752 85.3487 31.9996 85.1663 31.9996C85.0686 31.9996 84.9706 31.9926 84.8728 31.9798C84.7751 31.9671 84.6804 31.9437 84.5892 31.9111V31.1486C84.6614 31.1812 84.7436 31.2092 84.8384 31.2322C84.9326 31.2548 85.0126 31.2659 85.0778 31.2659C85.2474 31.2659 85.3891 31.2252 85.5031 31.1438C85.6171 31.0623 85.7029 30.9467 85.7624 30.7968L86.1041 29.9467L84.1006 24.9238H85.039L86.5143 29.0577H86.5341L87.9508 24.9238H88.8305L86.6318 30.6508Z" fill="black"/>
<path d="M31.9329 0.474609C31.9329 0.474609 39.2951 0.474609 40.7725 0.474609C44.0171 0.474609 45.4993 2.63811 45.4993 4.61537C45.4993 6.03985 44.9519 6.95916 43.4828 7.81421C45.3357 8.49908 46.3431 9.73494 46.3431 11.6408C46.3431 13.9203 44.6877 16.3391 40.7844 16.3391C38.6203 16.3391 31.9287 16.3391 31.9287 16.3391L31.9329 0.474609ZM36.7603 12.7571C36.7603 12.7571 38.8184 12.7571 39.9591 12.7571C41.0986 12.7571 41.6109 11.9425 41.6109 11.2219C41.6109 11.5557 41.7572 9.9075 40.1209 9.9075C39.2611 9.9075 36.7603 9.9075 36.7603 9.9075V12.7571ZM36.7716 6.72115C36.7716 6.72115 38.2603 6.72115 39.3421 6.72115C40.5172 6.72115 40.9855 6.17373 40.9855 5.37105C40.9855 5.1854 40.9278 4.15006 39.6794 4.15006C40.2495 4.15006 36.7716 4.15006 36.7716 4.15006V6.72115Z" fill="black"/>
<path d="M51.3719 0.474609H56.4837L62.3042 16.3212H57.0591L56.2909 13.9477H51.3945L50.7435 16.3087H45.5371L51.3719 0.474609ZM53.7198 5.17707L52.3703 10.4692H55.255L53.7198 5.17707Z" fill="black"/>
<path d="M70.4569 5.1874H75.3307C75.3307 2.49731 73.3065 0 68.5029 0C63.234 0 61.6018 2.90787 61.6018 5.03627C61.6018 8.46836 65.8021 9.38052 65.9312 9.42098C66.5595 9.61853 69.1663 10.3171 69.8155 10.5491C70.379 10.7509 70.9187 11.2025 70.9187 11.8052C70.9187 12.7317 69.8155 13.1768 68.8974 13.1768C68.3083 13.1768 66.3257 12.9816 66.3257 10.8806H61.29C61.29 13.6706 63.2102 16.7939 68.5951 16.7939C74.5376 16.7939 75.7818 13.2482 75.7818 11.3637C75.7818 9.825 74.9095 8.11848 72.8977 7.30628C71.688 6.81776 69.6828 6.38935 68.6748 6.09541C68.1667 5.94665 66.4756 5.60392 66.4756 4.57156C66.4756 3.24882 68.6558 3.41959 68.3375 3.41959C69.3252 3.41959 70.4569 3.97415 70.4569 5.1874Z" fill="black"/>
<path d="M76.6095 0.470703H88.7753V4.65787H81.4714V7.44912H87.9839V11.4506H81.4482V16.3358H76.5869L76.6095 0.470703Z" fill="black"/>
<path d="M0.201172 0.474609V16.3409H16.0674V0.474609H0.201172ZM11.1852 11.4587H5.08272V5.35617H11.1852V11.4587Z" fill="black"/>
<path d="M27.0527 5.35645H20.9502V11.459H27.0527V5.35645Z" fill="black"/>
</svg>
