<svg width="41" height="40" viewBox="0 0 41 40" fill="none" xmlns="http://www.w3.org/2000/svg">
<g clip-path="url(#clip0_385_3434)">
<path d="M19.395 5.94755H21.7108C21.974 5.94755 22.1845 5.73702 22.1845 5.47386C22.1845 5.21071 21.974 5.00018 21.7108 5.00018H19.395V5.94755ZM19.395 8.15807H21.7635C22.0793 8.15807 22.2898 7.94755 22.2898 7.63176C22.2898 7.31597 22.0793 7.10544 21.7635 7.10544H19.395V8.15807ZM23.1319 6.47386C23.4477 6.78965 23.6582 7.21071 23.6582 7.68439C23.6582 8.63176 22.9214 9.3686 21.974 9.3686H18.1319V3.84229H21.9214C22.8161 3.84229 23.5529 4.57913 23.5529 5.47386C23.5003 5.84228 23.3424 6.21071 23.1319 6.47386ZM24.0266 15.9475H22.6056L22.1845 15.0002H19.0793L18.6582 15.9475H17.2371L19.974 10.4212H21.2372L24.0266 15.9475ZM20.6056 11.8423L19.6582 13.8423H21.5529L20.6056 11.8423ZM22.5003 17.1581H24.0793L21.2898 20.737V22.6844H19.974V20.737L17.1845 17.1581H18.7635L20.6582 19.6844L22.5003 17.1581ZM29.8161 17.1581V18.3686H26.1319V19.316H29.7108V20.5265H26.1319V21.5791H29.8161V22.7897H24.8161V17.1581H29.8161ZM33.8687 20.5791H32.8687V22.6844H31.5529V17.1581H34.9214C35.8687 17.1581 36.6056 17.9475 36.6056 18.8949C36.6056 19.6844 36.0793 20.316 35.395 20.5265L37.0266 22.6844H35.4477L33.8687 20.5791ZM34.8161 18.316H32.9214V19.3686H34.8161C35.1319 19.3686 35.3424 19.1054 35.3424 18.8423C35.3424 18.5791 35.0793 18.316 34.8161 18.316ZM17.7635 22.6844H16.3424L15.9214 21.737H12.8161L12.395 22.6844H10.974L13.7635 17.1581H15.0266L17.7635 22.6844ZM14.3424 18.5791L13.395 20.5791H15.3424L14.3424 18.5791ZM5.97399 19.2633H8.28978C8.55294 19.2633 8.76347 19.0528 8.76347 18.7897C8.76347 18.5265 8.55294 18.316 8.28978 18.316H5.97399V19.2633ZM5.97399 21.4739H8.34241C8.6582 21.4739 8.86873 21.2633 8.86873 20.9475C8.86873 20.6318 8.6582 20.4212 8.34241 20.4212H5.97399V21.4739ZM9.71083 19.7897C10.0266 20.1054 10.2372 20.5265 10.2372 21.0002C10.2372 21.9475 9.50031 22.6844 8.55294 22.6844H4.6582V17.1581H8.44768C9.34241 17.1581 10.0793 17.8949 10.0793 18.7897C10.0793 19.1581 9.92136 19.5265 9.71083 19.7897ZM23.1319 23.8423V25.0528H19.4477V26.0002H23.0266V27.2107H19.4477V28.2633H23.1319V29.4739H18.1319V23.8423H23.1319ZM22.1845 32.4212C22.1845 32.1054 21.974 31.8949 21.6582 31.8949H19.395V32.9475H21.6582C21.974 32.9475 22.1845 32.737 22.1845 32.4212ZM18.0793 36.2633V30.737H21.7635C22.7108 30.737 23.4477 31.5265 23.4477 32.4739C23.4477 33.2107 23.0266 33.7897 22.395 34.0528L24.0793 36.2633H22.5003L20.9214 34.1581H19.395V36.2633H18.0793Z" fill="#10384F"/>
<path d="M40.5529 18.7368C39.9214 8.31579 31.2372 0 20.6056 0C9.97399 0 1.28978 8.31579 0.658203 18.7368C0.658203 19.1579 0.710835 19.5789 0.763466 20C1.18452 23.4737 2.50031 26.6842 4.50031 29.3684C8.13189 34.3158 13.974 37.5263 20.6056 37.5263C11.3424 37.5263 3.76347 30.3158 3.13189 21.2632C3.07926 20.8421 3.07926 20.4211 3.07926 20C3.07926 19.5789 3.07926 19.1579 3.13189 18.7368C3.76347 9.68421 11.3424 2.47368 20.6056 2.47368C27.2372 2.47368 33.0793 5.68421 36.7108 10.6316C38.7108 13.3158 40.0266 16.5263 40.4477 20C40.5003 20.4211 40.5529 20.8421 40.5529 21.2105C40.5529 20.7895 40.6056 20.3684 40.6056 19.9474C40.6056 19.5789 40.6056 19.1579 40.5529 18.7368Z" fill="#89D329"/>
<path d="M0.6581 21.2631C1.28968 31.6842 9.97389 40 20.6055 40C31.237 40 39.9213 31.6842 40.5528 21.2631C40.5528 20.8421 40.5002 20.421 40.4476 19.9999C40.0265 16.5263 38.7107 13.3157 36.7107 10.6315C33.0792 5.68416 27.237 2.47363 20.6055 2.47363C29.8686 2.47363 37.4476 9.68416 38.0792 18.7368C38.1318 19.1578 38.1318 19.5789 38.1318 19.9999C38.1318 20.421 38.1318 20.8421 38.0792 21.2631C37.4476 30.3684 29.8686 37.5263 20.6055 37.5263C13.9739 37.5263 8.13178 34.3157 4.50021 29.3684C2.50021 26.6842 1.18442 23.4736 0.763363 19.9999C0.710732 19.5789 0.6581 19.1578 0.6581 18.7894C0.6581 19.2105 0.605469 19.6315 0.605469 20.0526C0.605469 20.421 0.605469 20.8421 0.6581 21.2631Z" fill="#00BCFF"/>
</g>
<defs>
<clipPath id="clip0_385_3434">
<rect width="40" height="40" fill="white" transform="translate(0.5)"/>
</clipPath>
</defs>
</svg>
