<svg width="60" height="60" viewBox="0 0 60 60" fill="none" xmlns="http://www.w3.org/2000/svg">
<path d="M21.3574 55.8984C19.1426 53.5078 17.9355 50.1445 18.1465 46.9219C18.252 45.2812 19.6699 44.0977 21.2402 44.2148C22.6582 44.3086 23.7949 45.3984 23.9355 46.8281C24.2754 50.2734 27.2285 52.4063 30.0645 51.9375C32.5723 51.5859 34.3652 49.3477 33.8379 46.8281C33.2871 44.3555 31.4004 44.7656 28.4707 41.8359C25.8574 39.2461 24.1816 35.7539 23.6426 32.2969H22.1777C19.5879 32.2969 17.4434 30.3633 17.127 27.8672H42.8848C42.5566 30.3633 40.4238 32.2969 37.834 32.2969H36.6973C36.8379 34.0078 38.7363 35.1797 39.2754 35.6719C42.1699 38.2617 43.9629 42.082 44.0449 45.9023C44.4785 58.3242 29.3379 64.7344 21.3574 55.8984Z" fill="black"/>
<path d="M48.9668 10.9922V20.3203C48.9668 23.1328 46.6699 25.418 43.8574 25.418H16.1309C13.3184 25.418 11.0332 23.1328 11.0332 20.3203V10.9922C11.0332 9.63281 12.1348 8.51953 13.5059 8.51953H15.3457V1.21875C15.3457 0.550781 15.8965 0 16.5645 0C17.2441 0 17.7832 0.550781 17.7832 1.21875V8.51953H42.1934V1.21875C42.1934 0.550781 42.7441 0 43.4121 0C44.0918 0 44.6309 0.550781 44.6309 1.21875V8.51953H46.4707C47.8418 8.51953 48.9668 9.63281 48.9668 10.9922Z" fill="#C5C5C5"/>
</svg>
