<svg width="159" height="12" viewBox="0 0 159 12" fill="none" xmlns="http://www.w3.org/2000/svg">
<g clip-path="url(#clip0_386_3515)">
<path d="M99.2402 0.214844V1.76484H102.265V11.7798H104.05V1.76484H107.105V0.214844H99.2402Z" fill="black"/>
<path d="M124.38 0.209961V6.96496C124.38 8.68496 124.45 9.16996 124.745 9.84496C125.37 11.2 126.845 12 128.74 12C130.63 12 132.105 11.2 132.735 9.84496C133.03 9.18496 133.1 8.67996 133.1 6.96496V0.209961H131.31V6.92496C131.31 8.15996 131.275 8.55496 131.12 8.98996C130.81 9.88996 129.94 10.43 128.74 10.43C127.65 10.43 126.795 9.97996 126.45 9.19996C126.22 8.71496 126.175 8.30996 126.175 6.92496V0.209961H124.38Z" fill="black"/>
<path d="M146.15 3.61C145.91 1.295 144.475 0 142.2 0C141 0 139.87 0.43 139.02 1.2C137.855 2.275 137.25 3.94 137.25 6.03C137.25 9.66 139.21 12.005 142.265 12.005C144.695 12.005 146.115 10.52 146.32 7.785L144.695 7.67C144.52 9.51 143.67 10.445 142.21 10.445C140.3 10.445 139.12 8.74 139.12 6.02C139.12 3.3 140.3 1.575 142.175 1.575C143.475 1.575 144.295 2.305 144.57 3.73H144.69L146.15 3.61Z" fill="black"/>
<path d="M156.54 0.214844L152.765 4.84984H152.065V0.214844H150.275V11.7798H152.065V6.39984H152.635L156.66 11.7798H159L154.13 5.62484L158.635 0.214844H156.54Z" fill="black"/>
<path d="M114.355 1.75494C115.895 1.75494 116.28 1.80994 116.765 2.04994C117.335 2.32494 117.665 2.89994 117.665 3.62494C117.665 4.47494 117.25 5.11994 116.535 5.37494C116.065 5.54994 115.685 5.58494 114.435 5.58494H113.635V1.75494H114.355ZM111.86 11.7799H113.65V7.12994H115.44L118.055 11.7799H120.175L117.33 6.83994C118.79 6.24994 119.53 5.15994 119.53 3.64994C119.53 2.31494 118.87 1.20994 117.78 0.684935C117 0.319935 116.275 0.214935 114.35 0.214935C113.535 0.214935 112.62 0.194935 111.87 0.389935V11.7799H111.86Z" fill="black"/>
<path d="M29.4105 0.214844H27.6055V11.7748H29.4105V0.214844Z" fill="black"/>
<path d="M53.8252 0.214844V11.7798H60.5302L60.6352 10.2348H55.6602V0.214844H53.8252Z" fill="black"/>
<path d="M67.3496 5.01984V1.75484H72.4146L72.3046 0.214844H65.5596V11.7798H72.4446L72.5496 10.2348H67.3496V6.55984H70.5046V5.01984H67.3496Z" fill="black"/>
<path d="M19.2304 7.52484H15.9504L17.5804 2.32484L19.2304 7.52484ZM16.7304 0.214844L12.7754 11.7748H14.6154L15.4854 9.06984H19.7054L20.5554 11.7748H22.4104L18.4604 0.214844H16.7304Z" fill="black"/>
<path d="M36.27 0.220215L35.585 11.7702H37.235L37.805 2.65521L41.22 11.7702H42.14L45.57 2.65521L46.14 11.7702H47.79L47.105 0.220215H44.785L41.68 8.39522L38.605 0.220215H36.27Z" fill="black"/>
<path d="M80.1395 1.75494C81.6795 1.75494 82.0645 1.80994 82.5495 2.04994C83.1195 2.32494 83.4495 2.89994 83.4495 3.62494C83.4495 4.47494 83.0345 5.11994 82.3195 5.37494C81.8495 5.54994 81.4695 5.58494 80.2195 5.58494H79.4195V1.75494H80.1395ZM77.6445 11.7799H79.4345V7.12994H81.2245L83.8395 11.7799H85.9595L83.1145 6.83994C84.5745 6.24994 85.3145 5.15994 85.3145 3.64994C85.3145 2.31494 84.6545 1.20994 83.5645 0.684935C82.7845 0.319935 82.0595 0.214935 80.1345 0.214935C79.3195 0.214935 78.4045 0.194935 77.6545 0.389935V11.7799H77.6445Z" fill="black"/>
<path d="M1.79 10.2348V1.71984H2.295C4.185 1.71984 4.67 1.78984 5.365 2.22484C6.42 2.88484 6.975 4.26484 6.975 5.97984C6.975 7.69484 6.46 9.04484 5.485 9.68484C4.825 10.1148 4.235 10.2448 2.725 10.2448H1.79V10.2348ZM0 0.389844V11.7798H2.1C4.51 11.7798 5.305 11.6498 6.28 11.0998C7.89 10.2048 8.825 8.27484 8.825 5.98984C8.825 3.68484 7.825 1.67984 6.18 0.804844C5.29 0.329844 4.3 0.214844 2.34 0.214844C1.675 0.214844 0.62 0.219844 0 0.389844Z" fill="black"/>
</g>
<defs>
<clipPath id="clip0_386_3515">
<rect width="159" height="12" fill="white"/>
</clipPath>
</defs>
</svg>
