<svg width="41" height="40" viewBox="0 0 41 40" fill="none" xmlns="http://www.w3.org/2000/svg">
<path d="M34.4108 14.8559C34.2777 14.5897 33.9449 14.5232 33.6787 14.6563C32.2146 15.6546 28.5541 16.786 28.5541 16.786C15.5097 20.1136 21.0336 34.2894 21.0336 34.2894C27.3562 34.8219 33.346 33.4908 35.8084 26.7689C37.6719 21.4447 35.276 16.3867 34.4108 14.8559Z" fill="#638B3F"/>
<path d="M20.9668 34.2894C20.9668 33.6239 23.2962 24.7723 31.3491 20.5129C31.3491 20.5129 23.8951 27.1683 20.9668 34.2894Z" fill="#82AF58"/>
<path d="M9.85259 5.80464C10.1188 5.53843 10.5181 5.53843 10.7843 5.80464C12.3816 7.46847 16.641 10.064 16.641 10.064C32.0813 18.117 20.967 34.3559 20.967 34.3559C12.7809 33.2245 5.65975 29.7638 4.5949 20.5129C3.79626 13.192 8.25532 7.53502 9.85259 5.80464Z" fill="#88C057"/>
<path d="M21.033 34.2894C21.2326 33.4242 20.8999 21.5778 12.0483 13.8576C11.9817 13.7911 19.4357 24.4396 21.033 34.2894Z" fill="#638B3F"/>
</svg>
