<svg width="60" height="60" viewBox="0 0 60 60" fill="none" xmlns="http://www.w3.org/2000/svg">
<path d="M38.0926 59.0001H21.9066C21.37 59.0001 20.8553 58.787 20.4759 58.4075C20.0965 58.0281 19.8833 57.5135 19.8833 56.9769C19.8833 56.4403 20.0965 55.9256 20.4759 55.5462C20.8553 55.1668 21.37 54.9536 21.9066 54.9536H38.0926C38.6292 54.9536 39.1438 55.1668 39.5232 55.5462C39.9027 55.9256 40.1158 56.4403 40.1158 56.9769C40.1158 57.5135 39.9027 58.0281 39.5232 58.4075C39.1438 58.787 38.6292 59.0001 38.0926 59.0001Z" fill="#C5C5C5"/>
<path d="M29.9996 58.9998C29.463 58.9998 28.9483 58.7866 28.5689 58.4072C28.1895 58.0278 27.9763 57.5131 27.9763 56.9765V46.1859C27.9763 45.6493 28.1895 45.1346 28.5689 44.7552C28.9483 44.3758 29.463 44.1626 29.9996 44.1626C30.5362 44.1626 31.0508 44.3758 31.4302 44.7552C31.8097 45.1346 32.0228 45.6493 32.0228 46.1859V56.9765C32.0228 57.5131 31.8097 58.0278 31.4302 58.4072C31.0508 58.7866 30.5362 58.9998 29.9996 58.9998Z" fill="#C5C5C5"/>
<path d="M46.186 1H13.8139C10.4168 1.00428 7.15999 2.3557 4.75784 4.75785C2.35569 7.16 1.00428 10.4168 1 13.8139V35.3953C1.00428 38.7925 2.35569 42.0493 4.75784 44.4514C7.15999 46.8536 10.4168 48.205 13.8139 48.2093H46.186C49.5831 48.205 52.8399 46.8536 55.242 44.4514C57.6442 42.0493 58.9956 38.7925 58.9999 35.3953V13.8139C58.9956 10.4168 57.6442 7.16 55.242 4.75785C52.8399 2.3557 49.5831 1.00428 46.186 1ZM46.186 26.6279H39.3447L34.5077 36.299C34.3401 36.6356 34.0818 36.9187 33.762 37.1165C33.4422 37.3143 33.0736 37.4189 32.6976 37.4186C32.6236 37.4195 32.5497 37.415 32.4764 37.4051C32.0657 37.3598 31.6787 37.1901 31.3672 36.9186C31.0557 36.6472 30.8347 36.287 30.7337 35.8863L26.6656 19.6085L23.7171 25.5084C23.5494 25.8449 23.2911 26.128 22.9714 26.3258C22.6516 26.5236 22.2829 26.6282 21.9069 26.6279H13.8139C13.2773 26.6279 12.7627 26.4147 12.3833 26.0353C12.0038 25.6559 11.7907 25.1412 11.7907 24.6046C11.7907 24.068 12.0038 23.5534 12.3833 23.174C12.7627 22.7945 13.2773 22.5814 13.8139 22.5814H20.6552L25.4921 12.9102C25.6721 12.5362 25.965 12.2282 26.3295 12.0298C26.694 11.8313 27.1117 11.7524 27.5235 11.8042C27.9342 11.8494 28.3212 12.0192 28.6327 12.2906C28.9442 12.5621 29.1652 12.9223 29.2662 13.323L33.3343 29.6007L36.2828 23.7009C36.4505 23.3644 36.7087 23.0813 37.0285 22.8835C37.3483 22.6857 37.7169 22.5811 38.093 22.5814H46.186C46.7226 22.5814 47.2372 22.7945 47.6166 23.174C47.9961 23.5534 48.2092 24.068 48.2092 24.6046C48.2092 25.1412 47.9961 25.6559 47.6166 26.0353C47.2372 26.4147 46.7226 26.6279 46.186 26.6279Z" fill="black"/>
</svg>
