<svg width="60" height="60" viewBox="0 0 60 60" fill="none" xmlns="http://www.w3.org/2000/svg">
<path d="M59.7046 30.7843L53.2061 21.2125L59.7046 11.6407C60.0084 11.1842 60.0822 10.6143 59.9053 10.0959C59.7269 9.57743 59.3182 9.17056 58.7982 8.999L37.5874 1.9678C36.8286 1.71198 36.0081 2.00038 35.5686 2.65955L29.9999 11.0125L24.4312 2.65955C23.9884 1.99698 23.1609 1.71022 22.4124 1.9678L1.20167 8.999C0.681594 9.17067 0.272964 9.57755 0.0944891 10.0959C-0.0823455 10.6143 -0.00851793 11.1842 0.295347 11.6408L6.79381 21.2127L0.295464 30.7843C-0.00840075 31.2409 -0.0822283 31.8109 0.0946062 32.3293C0.273081 32.8478 0.681711 33.2546 1.20178 33.4262L22.4126 40.4574C23.159 40.7084 23.9894 40.4282 24.4313 39.7656L30 31.4127L35.5687 39.7656C36.011 40.4289 36.8419 40.7083 37.5875 40.4574L58.7983 33.4262C59.3184 33.2545 59.727 32.8476 59.9055 32.3293C60.0823 31.8109 60.0085 31.241 59.7046 30.7843ZM30 26.3916L14.4631 21.2127L30 16.0337L45.537 21.2127L30 26.3916Z" fill="#1D1D1B"/>
<path d="M38.6995 43.7927C36.487 44.535 33.9856 43.7301 32.6433 41.7156L29.9999 37.7505L27.3562 41.7156C26.0166 43.7262 23.5181 44.5385 21.2915 43.7892L7.14844 39.0753V49.3373C7.14844 50.0943 7.63254 50.7656 8.35007 51.0042L29.4333 58.032C29.4969 58.0542 29.5604 58.0715 29.6239 58.0852C29.6239 58.0852 29.6256 58.0852 29.6256 58.0869H29.6274C29.751 58.1127 29.8763 58.1264 29.9999 58.1264C30.1321 58.1264 30.2626 58.111 30.393 58.0818C30.4513 58.0681 30.5079 58.0526 30.5647 58.0337L51.6497 51.0043C52.3671 50.7656 52.8512 50.0943 52.8512 49.3373V39.0755L38.6995 43.7927Z" fill="#C5C5C5"/>
</svg>
