<svg width="40" height="40" viewBox="0 0 40 40" fill="none" xmlns="http://www.w3.org/2000/svg">
<path d="M32.186 25.3694C31.3259 27.7004 30.0251 29.7273 28.3193 31.3931C26.3777 33.2891 23.8352 34.7957 20.7624 35.8704C20.6616 35.9055 20.5564 35.9343 20.4507 35.9556C20.311 35.9832 20.1689 35.998 20.0281 36H20.0005C19.8503 36 19.6995 35.9849 19.5498 35.9556C19.4441 35.9343 19.3403 35.9055 19.24 35.8711C16.1636 34.7981 13.6179 33.2922 11.6743 31.3962C9.96777 29.7305 8.66723 27.7048 7.80834 25.3738C6.24657 21.1355 6.33544 16.4665 6.40697 12.7146L6.40819 12.657C6.4226 12.3472 6.43188 12.0217 6.437 11.6623C6.46313 9.89793 7.86596 8.43822 9.63061 8.33983C13.3098 8.13451 16.156 6.93455 18.5879 4.56419L18.6091 4.54466C19.0129 4.1743 19.5217 3.99266 20.0281 4.00023C20.5164 4.00657 21.0027 4.18797 21.3921 4.54466L21.4128 4.56419C23.8452 6.93455 26.6914 8.13451 30.3706 8.33983C32.1353 8.43822 33.5381 9.89793 33.5642 11.6623C33.5693 12.0242 33.5786 12.3491 33.593 12.657L33.5938 12.6814C33.665 16.4404 33.7534 21.1186 32.186 25.3694Z" fill="#1D1D1B"/>
<path d="M32.1863 25.3694C31.3262 27.7005 30.0254 29.7273 28.3196 31.3931C26.3779 33.2891 23.8355 34.7957 20.7627 35.8704C20.6619 35.9055 20.5566 35.9343 20.4509 35.9556C20.3113 35.9832 20.1692 35.9981 20.0283 36V4.00024C20.5166 4.00659 21.0029 4.18799 21.3923 4.54468L21.4131 4.56421C23.8455 6.93457 26.6917 8.13452 30.3709 8.33985C32.1355 8.43823 33.5383 9.89795 33.5645 11.6624C33.5696 12.0242 33.5789 12.3491 33.5933 12.657L33.594 12.6814C33.6653 16.4404 33.7537 21.1187 32.1863 25.3694Z" fill="#1D1D1B"/>
<path d="M27.9758 20C27.9758 24.3879 24.4131 27.9597 20.0288 27.9753H20.0007C15.6035 27.9753 12.0254 24.3975 12.0254 20C12.0254 15.6028 15.6035 12.0249 20.0007 12.0249H20.0288C24.4131 12.0405 27.9758 15.6123 27.9758 20Z" fill="#C5C5C5"/>
<path d="M27.9753 20C27.9753 24.3879 24.4126 27.9597 20.0283 27.9753V12.0249C24.4126 12.0405 27.9753 15.6123 27.9753 20Z" fill="#C5C5C5"/>
<path d="M23.6195 18.8516L20.0277 22.4439L19.2516 23.22C19.0682 23.4034 18.8278 23.4949 18.5875 23.4949C18.347 23.4949 18.1068 23.4034 17.9232 23.22L16.2545 21.5506C15.8878 21.1839 15.8878 20.5899 16.2545 20.223C16.6207 19.8563 17.2155 19.8563 17.5822 20.223L18.5875 21.2283L22.2919 17.524C22.6586 17.157 23.2533 17.157 23.6195 17.524C23.9862 17.8907 23.9862 18.4854 23.6195 18.8516Z" fill="#1D1D1B"/>
<path d="M23.6201 18.8516L20.0283 22.4439V19.7879L22.2925 17.524C22.6592 17.157 23.2539 17.157 23.6201 17.524C23.9868 17.8907 23.9868 18.4854 23.6201 18.8516Z" fill="#1D1D1B"/>
</svg>
