<svg width="60" height="60" viewBox="0 0 60 60" fill="none" xmlns="http://www.w3.org/2000/svg">
<g clip-path="url(#clip0_222_862)">
<path d="M56.0979 22.6288C56.0979 21.6668 56.0337 20.7689 55.8413 19.8711L59.3253 16.6257C60.0256 15.9734 60.1801 14.9228 59.6974 14.0965L57.5555 10.4298C57.0771 9.61085 56.0985 9.22801 55.1914 9.50494L50.6465 10.8923C49.2355 9.73791 47.6322 8.7759 45.9006 8.13456L44.8511 3.50713C44.6397 2.57512 43.8113 1.91357 42.8556 1.91357H38.6841C37.7285 1.91357 36.9001 2.57512 36.6887 3.50713L35.6392 8.13456C33.9075 8.7759 32.3042 9.67378 30.8933 10.8923L26.367 9.51063C25.4513 9.2311 24.4642 9.62392 23.9909 10.4562L21.8803 14.168C21.4117 14.9922 21.5706 16.0304 22.2643 16.6766L25.7625 19.9352C25.6343 20.8331 25.506 21.7309 25.506 22.693C25.506 23.655 25.5701 24.5528 25.7625 25.4507L22.2786 28.696C21.5783 29.3484 21.4237 30.3989 21.9065 31.2253L24.0484 34.8919C24.5268 35.7109 25.5053 36.0938 26.4125 35.8168L30.9574 34.4295C32.3683 35.5839 33.9717 36.5459 35.7033 37.1872L36.7528 41.8147C36.9642 42.7467 37.7926 43.4082 38.7483 43.4082H42.9839C43.9396 43.4082 44.7679 42.7467 44.9793 41.8147L46.0289 37.1872C47.7605 36.5459 49.3638 35.648 50.7748 34.4295L55.289 35.8075C56.2102 36.0887 57.2027 35.6894 57.6726 34.8487L59.7401 31.1489C60.1998 30.3262 60.0382 29.2959 59.3486 28.6536L55.8413 25.3866C56.0337 24.4887 56.0979 23.5908 56.0979 22.6288ZM40.7699 30.9662C36.1522 30.9662 32.4325 27.2465 32.4325 22.6288C32.4325 18.0112 36.1522 14.2914 40.7699 14.2914C45.3875 14.2914 49.1073 18.0112 49.1073 22.6288C49.1073 27.2465 45.3875 30.9662 40.7699 30.9662Z" fill="black"/>
<path d="M25.1801 45.7173L28.7545 44.3493C29.6894 43.9915 30.2282 43.0099 30.028 42.0292L29.4382 39.1394C29.2385 38.1607 28.3612 37.4692 27.3629 37.5036L23.5126 37.6364C22.6147 36.2896 21.332 35.1352 19.9211 34.3656L19.7006 30.5289C19.6429 29.5248 18.8641 28.7116 17.8635 28.6105L14.954 28.3166C13.9685 28.2171 13.0531 28.8378 12.781 29.7903L11.712 33.5318C10.1086 33.9808 8.63354 34.8145 7.47913 35.9689L3.75821 34.9944C2.79523 34.7422 1.79046 35.2196 1.37778 36.1255L0.184334 38.7453C-0.231805 39.6588 0.0761541 40.7392 0.911364 41.296L4.08003 43.4085C4.0159 45.1401 4.4007 46.7434 5.04204 48.2185L2.96739 51.4408C2.42534 52.2827 2.57221 53.3932 3.31447 54.0653L5.48706 56.0324C6.22926 56.7044 7.34875 56.7406 8.13282 56.1179L11.1348 53.734C11.9044 53.9906 12.674 54.183 13.5077 54.3112C14.3415 54.3754 15.1752 54.3754 15.9448 54.3112L18.3843 57.3274C19.0124 58.1039 20.1092 58.3135 20.9794 57.8235L23.537 56.3829C24.4105 55.891 24.7989 54.8386 24.4545 53.8971L23.1278 50.2708C24.1539 48.924 24.8594 47.3848 25.1801 45.7173ZM14.2773 47.7696C12.0326 47.513 10.4293 45.5249 10.6858 43.2802C10.9424 41.0355 12.9305 39.4322 15.1752 39.6887C17.4199 39.9452 19.0232 41.9334 18.7667 44.1781C18.5102 46.3586 16.522 47.962 14.2773 47.7696Z" fill="#C5C5C5"/>
</g>
<defs>
<clipPath id="clip0_222_862">
<rect width="60" height="60" fill="white"/>
</clipPath>
</defs>
</svg>
