<svg width="119" height="20" viewBox="0 0 119 20" fill="none" xmlns="http://www.w3.org/2000/svg">
<g clip-path="url(#clip0_385_3431)">
<path d="M7.73483 0C8.9151 0 10.6232 0.227676 12.8575 0.683567V4.24756C11.1951 3.55161 9.65198 3.20435 8.22619 3.20435C6.21858 3.20435 5.21477 3.78216 5.21477 4.94011C5.21477 5.37302 5.41711 5.72602 5.82195 5.99966C6.15861 6.22124 7.08652 6.68898 8.60346 7.40469C10.7875 8.42133 12.2416 9.3051 12.9661 10.0567C13.8259 10.9484 14.2564 12.102 14.2564 13.516C14.2564 15.5488 13.413 17.0992 11.7269 18.1676C10.3611 19.0338 8.58992 19.4652 6.4144 19.4652C4.57743 19.4652 2.7264 19.2386 0.862701 18.7828V15.0778C2.87477 15.7414 4.65521 16.0734 6.20401 16.0734C8.34253 16.0734 9.41178 15.4811 9.41178 14.2971C9.41178 13.8558 9.25622 13.485 8.94423 13.1846C8.62522 12.8659 7.80833 12.4243 6.49527 11.8586C4.13969 10.8435 2.60356 9.97771 1.88913 9.26183C0.962928 8.31647 0.5 7.12458 0.5 5.68419C0.5 3.82938 1.17469 2.41556 2.52304 1.44416C3.85648 0.481029 5.59289 0 7.73483 0ZM111.517 0C112.721 0 114.282 0.200384 116.196 0.603127L116.639 0.683567V4.24756C114.976 3.55161 113.428 3.20435 111.995 3.20435C109.995 3.20435 108.997 3.78216 108.997 4.94011C108.997 5.37302 109.198 5.72602 109.602 5.99966C109.923 6.2128 110.855 6.68072 112.397 7.40469C114.565 8.42133 116.016 9.3051 116.746 10.0567C117.608 10.9484 118.037 12.102 118.037 13.516C118.037 15.5488 117.198 17.0992 115.521 18.1676C114.147 19.0338 112.371 19.4652 110.196 19.4652C108.357 19.4652 106.506 19.2386 104.644 18.7828V15.0778C106.639 15.7414 108.419 16.0734 109.986 16.0734C112.124 16.0734 113.192 15.4811 113.192 14.2971C113.192 13.8558 113.041 13.485 112.739 13.1846C112.419 12.8659 111.598 12.4243 110.277 11.8586C107.929 10.852 106.391 9.98651 105.67 9.26183C104.744 8.32491 104.282 7.12853 104.282 5.67144C104.282 3.82471 104.955 2.41556 106.305 1.44416C107.637 0.481029 109.375 0 111.517 0ZM49.4427 0.326055L53.9466 12.313L58.5634 0.326055H64.7211V19.0862H59.9803V5.80357L54.7308 19.2767H51.6313L46.4827 5.80357V19.0862H42.9599V0.326055H49.4427ZM22.0801 0.325983V19.0861H17.0801V0.325983H22.0801ZM39.4895 0.326055V3.71929H31.4846V7.95536H38.4525V11.0504H31.4846V15.5024H39.6958V19.0862H26.6657V0.326055H39.4895ZM82.1312 0.326055V3.71929H74.127V7.95536H81.0947V11.0504H74.127V15.5024H82.3389V19.0862H69.3075V0.326055H82.1312ZM91.4238 0.326055L97.5719 12.8845V0.326055H101.094V19.0862H95.4634L89.152 6.35876V19.0862H85.6288V0.326055H91.4238Z" fill="#000028"/>
</g>
<defs>
<clipPath id="clip0_385_3431">
<rect width="118" height="20" fill="white" transform="translate(0.5)"/>
</clipPath>
</defs>
</svg>
