<svg width="40" height="40" viewBox="0 0 40 40" fill="none" xmlns="http://www.w3.org/2000/svg">
<path d="M26.4 36C23.383 36 21.8746 36 20.9373 35.0627C20.1334 34.259 20.019 33.035 20.0027 30.8L20 28.4V26V23.6V21.2V18.8V16.4V14V11.6L20.0027 9.2C20.019 6.9649 20.1334 5.74102 20.9373 4.93726C21.8746 4 23.383 4 26.4 4H29.6C32.617 4 34.1254 4 35.0627 4.93726C36 5.87451 36 7.38302 36 10.4V29.6C36 32.617 36 34.1254 35.0627 35.0627C34.1254 36 32.617 36 29.6 36H26.4Z" fill="#1D1D1B"/>
<path d="M24.8 14H20V16.4H24.8C25.4627 16.4 26 15.8627 26 15.2C26 14.5372 25.4627 14 24.8 14Z" fill="#C5C5C5"/>
<path d="M23.2 9.19995H20.0027L20 11.6H23.2C23.8627 11.6 24.4 11.0627 24.4 10.4C24.4 9.73722 23.8627 9.19995 23.2 9.19995Z" fill="#C5C5C5"/>
<path d="M23.2 18.7999H20V21.1999H23.2C23.8627 21.1999 24.4 20.6626 24.4 19.9999C24.4 19.3372 23.8627 18.7999 23.2 18.7999Z" fill="#C5C5C5"/>
<path d="M24.8 23.6H20V26H24.8C25.4627 26 26 25.4627 26 24.8C26 24.1373 25.4627 23.6 24.8 23.6Z" fill="#C5C5C5"/>
<path d="M23.2 28.3999H20L20.0027 30.7999H23.2C23.8627 30.7999 24.4 30.2626 24.4 29.5999C24.4 28.9372 23.8627 28.3999 23.2 28.3999Z" fill="#C5C5C5"/>
<path d="M13.6 24.7673V12.0004C12.3696 12.5076 10.7466 12.9426 8.80029 12.9426C6.85363 12.9426 5.23046 12.5074 4 12.0001V24.7673C4 25.7635 4 26.2617 4.06043 26.7505C4.13171 27.3272 4.2656 27.8944 4.45973 28.4421C4.6243 28.9064 4.84709 29.3518 5.29264 30.243L7.64222 34.9422C7.86149 35.3806 8.30971 35.6577 8.8 35.6577C9.29029 35.6577 9.73851 35.3806 9.95778 34.9422L12.3074 30.243C12.7529 29.3518 12.9757 28.9064 13.1403 28.4421C13.3344 27.8944 13.4683 27.3272 13.5396 26.7505C13.6 26.2617 13.6 25.7635 13.6 24.7673Z" fill="#C5C5C5"/>
<path d="M8.8 4C11.451 4 13.6 6.14904 13.6 8.8V12.0002C12.3696 12.5074 10.7466 12.9425 8.80029 12.9425C6.85363 12.9425 5.23046 12.5073 4 12V8.8C4 6.14904 6.14904 4 8.8 4Z" fill="#1D1D1B"/>
</svg>
