<svg width="41" height="40" viewBox="0 0 41 40" fill="none" xmlns="http://www.w3.org/2000/svg">
<path d="M14.2657 13.7658C14.2085 14.2228 14.1787 14.6883 14.1787 15.1607C14.1787 15.6631 14.2127 16.1576 14.2773 16.6425H23.2262C21.2359 14.804 18.5773 13.6788 15.6606 13.6788C15.1883 13.6788 14.7228 13.7086 14.2657 13.7658Z" fill="#C5C5C5"/>
<path d="M24.8534 18.5182H14.6953C15.0323 19.5841 15.5255 20.5811 16.1476 21.4828H26.3053C25.9685 20.4169 25.4753 19.4199 24.8534 18.5182Z" fill="#C5C5C5"/>
<path d="M15.6606 36.0001C20.6586 36.0001 24.8997 32.6978 26.3167 28.1605C25.994 28.1845 25.6681 28.197 25.3394 28.197C18.1511 28.197 12.3031 22.349 12.3031 15.1607C12.3031 14.832 12.3156 14.506 12.3396 14.1833C7.80234 15.6004 4.5 19.8414 4.5 24.8395C4.5 30.9934 9.50665 36.0001 15.6606 36.0001Z" fill="#1D1D1B"/>
<path d="M26.7234 23.3584H17.7754C19.7657 25.1963 22.4238 26.3212 25.34 26.3212C25.8123 26.3212 26.2778 26.2914 26.7349 26.2341C26.7921 25.7771 26.8219 25.3116 26.8219 24.8393C26.8219 24.3373 26.788 23.8431 26.7234 23.3584Z" fill="#C5C5C5"/>
<path d="M25.3397 4C20.3417 4 16.1006 7.30234 14.6836 11.8396C15.0063 11.8156 15.3322 11.8031 15.661 11.8031C22.8492 11.8031 28.6972 17.6511 28.6972 24.8394C28.6972 25.1682 28.6847 25.4941 28.6607 25.8168C33.198 24.3998 36.5003 20.1586 36.5003 15.1607C36.5004 9.00665 31.4937 4 25.3397 4Z" fill="#1D1D1B"/>
</svg>
