<svg width="41" height="40" viewBox="0 0 41 40" fill="none" xmlns="http://www.w3.org/2000/svg">
<g clip-path="url(#clip0_385_3441)">
<path d="M40.4008 20.0036C40.4008 9.00347 31.4822 0.105957 20.5032 0.105957C9.50298 0.105957 0.605469 9.02464 0.605469 20.0036C0.605469 31.0038 9.52415 39.9013 20.5032 39.9013C31.4822 39.9013 40.4008 30.9827 40.4008 20.0036ZM4.74024 11.3319H14.428L6.44071 31.0955H34.6291C31.341 35.2797 26.2326 37.961 20.489 37.961C10.5543 37.961 2.51057 29.9172 2.51057 19.9895C2.52468 16.8567 3.322 13.9073 4.74024 11.3319ZM32.0184 19.9331V17.4988H27.1428V11.346H36.2308C37.649 13.9144 38.4464 16.8638 38.4464 20.0107C38.4464 23.1576 37.649 26.107 36.2308 28.6754H13.2285L21.2087 8.91174H6.35604C9.6441 4.72758 14.7526 2.04633 20.4961 2.04633C26.2255 2.04633 31.341 4.72758 34.6362 8.91174H21.7944V26.8902H27.1569V19.926H32.0184V19.9331Z" fill="#0057B7"/>
</g>
<defs>
<clipPath id="clip0_385_3441">
<rect width="40" height="40" fill="white" transform="translate(0.5)"/>
</clipPath>
</defs>
</svg>
